<?xml version="1.0" encoding="iso-8859-1"?>
<!-- Generator: Adobe Illustrator 21.0.0, SVG Export Plug-In . SVG Version: 6.00 Build 0)  -->
<svg version="1.1" id="Capa_1" xmlns="http://www.w3.org/2000/svg" xmlns:xlink="http://www.w3.org/1999/xlink" x="0px" y="0px"
	 viewBox="0 0 512 512" style="enable-background:new 0 0 512 512;" xml:space="preserve" width="20pt" height="20pt">
<circle style="fill:#FF432E;" cx="256" cy="256" r="256"/>
<path style="fill:#DB0404;" d="M512,256c0-1.815-0.031-3.624-0.069-5.43l-123.55-123.55L115.667,389.052l122.307,122.307
	C243.93,511.774,249.938,512,256,512C397.385,512,512,397.385,512,256z"/>
<polygon style="fill:#00C8C8;" points="329.563,68.201 188.147,68.201 188.147,328.381 388.382,328.381 388.382,127.02 "/>
<polygon style="fill:#1CADB5;" points="388.382,127.02 329.563,68.201 287.119,68.201 287.119,328.381 388.382,328.381 "/>
<polygon style="fill:#00A0AA;" points="329.563,127.02 388.382,127.02 329.563,68.201 "/>
<polygon style="fill:#FFFFFF;" points="297.298,125.91 155.883,125.91 155.883,386.09 356.117,386.09 356.117,184.729 "/>
<polygon style="fill:#F2F6FC;" points="356.117,184.729 297.298,125.91 255.571,125.91 255.571,386.09 356.117,386.09 "/>
<g>
	<polygon style="fill:#DCE1EB;" points="297.298,184.729 356.117,184.729 297.298,125.91 	"/>
	<rect x="182.79" y="212.26" style="fill:#DCE1EB;" width="146.42" height="13.14"/>
</g>
<rect x="255.57" y="212.26" style="fill:#CDD2E1;" width="73.64" height="13.14"/>
<rect x="182.79" y="243.24" style="fill:#DCE1EB;" width="146.42" height="13.14"/>
<rect x="255.57" y="243.24" style="fill:#CDD2E1;" width="73.64" height="13.14"/>
<rect x="182.79" y="274.21" style="fill:#DCE1EB;" width="146.42" height="13.14"/>
<rect x="255.57" y="274.21" style="fill:#CDD2E1;" width="73.64" height="13.14"/>
<rect x="182.79" y="305.18" style="fill:#DCE1EB;" width="146.42" height="13.14"/>
<polygon style="fill:#FFD400;" points="329.385,276.614 329.385,304.938 182.615,304.938 182.615,276.614 115.667,276.614 
	115.667,389.052 396.333,389.052 396.333,276.614 "/>
<polygon style="fill:#FFB000;" points="396.333,276.614 329.385,276.614 329.385,304.938 255.571,304.938 255.571,389.052 
	396.333,389.052 "/>
<g>
</g>
<g>
</g>
<g>
</g>
<g>
</g>
<g>
</g>
<g>
</g>
<g>
</g>
<g>
</g>
<g>
</g>
<g>
</g>
<g>
</g>
<g>
</g>
<g>
</g>
<g>
</g>
<g>
</g>
</svg>
