<?xml version="1.0" encoding="iso-8859-1"?>
<!-- Generator: Adobe Illustrator 19.0.0, SVG Export Plug-In . SVG Version: 6.00 Build 0)  -->
<svg version="1.1" id="Capa_1" xmlns="http://www.w3.org/2000/svg" xmlns:xlink="http://www.w3.org/1999/xlink" x="0px" y="0px"
	 viewBox="0 0 512 512" width="20pt" height="20pt">
<circle style="fill:#FD833F;" cx="256" cy="256" r="256"/>
<path style="fill:#FA5535;" d="M512,256c0-13.797-1.106-27.335-3.207-40.541l-80.96-80.959L69.421,380l124.373,124.373
	C213.71,509.345,234.544,512,256,512C397.385,512,512,397.385,512,256z"/>
<rect x="89.67" y="140" style="fill:#006C5D;" width="332.67" height="232"/>
<rect x="255.95" y="140" style="fill:#005B4E;" width="166.38" height="232"/>
<path style="fill:#DFDFDF;" d="M427.833,377.5H84.167v-243h343.667L427.833,377.5L427.833,377.5z M95.167,366.5h321.667v-221H95.167
	V366.5z"/>
<polygon style="fill:#BCBCBC;" points="427.833,134.5 255.952,134.5 255.952,145.5 416.833,145.5 416.833,366.5 255.952,366.5 
	255.952,377.5 427.833,377.5 "/>
<rect x="69.42" y="340" style="fill:#FFFFFF;" width="373.16" height="40"/>
<rect x="255.95" y="340" style="fill:#E0E0E0;" width="186.63" height="40"/>
<rect x="126.02" y="201.25" style="fill:#FFFFFF;" width="18.1" height="94.02"/>
<rect x="258.03" y="201.25" style="fill:#E0E0E0;" width="18.1" height="94.02"/>
<polygon style="fill:#FFFFFF;" points="230.134,239.217 210.123,239.217 210.123,219.206 192.025,219.206 192.025,239.217 
	172.013,239.217 172.013,257.316 192.025,257.316 192.025,277.327 210.123,277.327 210.123,257.316 230.134,257.316 "/>
<g>
	<rect x="304.03" y="223.91" style="fill:#E0E0E0;" width="58.12" height="18.1"/>
	<rect x="304.03" y="254.52" style="fill:#E0E0E0;" width="58.12" height="18.1"/>
</g>
<g>
</g>
<g>
</g>
<g>
</g>
<g>
</g>
<g>
</g>
<g>
</g>
<g>
</g>
<g>
</g>
<g>
</g>
<g>
</g>
<g>
</g>
<g>
</g>
<g>
</g>
<g>
</g>
<g>
</g>
</svg>
