<svg height="20pt" viewBox="0 0 512 512" width="20pt" xmlns="http://www.w3.org/2000/svg"><path d="m512 256c0 141.386719-114.613281 256-256 256s-256-114.613281-256-256 114.613281-256 256-256 256 114.613281 256 256zm0 0" fill="#fdbf00"/><path d="m421.550781 122.542969-31.359375-31.359375-119.296875 119.296875-.328125-.328125-190.644531 190.644531 99.570313 99.570313c24.160156 7.554687 49.855468 11.632812 76.507812 11.632812 141.386719 0 256-114.613281 256-256 0-26.339844-3.984375-51.746094-11.371094-75.65625l-68.4375-68.441406zm0 0" fill="#ff9f00"/><path d="m79.816406 111.796875v289.050781h352.367188v-289.050781zm0 0" fill="#68544f"/><path d="m256 111.796875h176.183594v289.050781h-176.183594zm0 0" fill="#53433f"/><path d="m390.203125 91.152344v268.402344h-82.585937c-22.710938 0-41.292969 18.582031-41.292969 41.292968h-20.648438c0-11.355468-4.539062-21.675781-12.179687-29.109375-7.433594-7.640625-17.757813-12.183593-29.113282-12.183593h-82.585937v-268.402344h92.910156c16.929688 0 31.796875 8.050781 41.292969 20.644531 7.433594-9.910156 18.378906-17.136719 30.972656-19.613281l38.8125 20.234375 23.125-21.265625zm0 0" fill="#e7e7e7"/><path d="m390.203125 91.152344v268.402344h-82.585937c-22.710938 0-41.292969 18.582031-41.292969 41.292968h-10.324219v-289.050781c7.433594-9.910156 18.375-17.136719 30.96875-19.613281l38.816406 20.230468 23.125-21.261718zm0 0" fill="#d3d3d8"/><path d="m297.292969 91.152344c-3.511719 0-7.019531.410156-10.324219 1.03125v96.210937l30.972656-30.96875 30.96875 30.96875v-97.242187zm0 0" fill="#ff4b00"/><g fill="#d3d3d8"><path d="m163.089844 132.445312h61.941406v20.644532h-61.941406zm0 0"/><path d="m163.089844 173.738281h61.941406v20.644531h-61.941406zm0 0"/><path d="m163.089844 215.03125h61.941406v20.644531h-61.941406zm0 0"/><path d="m163.089844 256.324219h61.941406v20.644531h-61.941406zm0 0"/><path d="m163.089844 297.617188h61.941406v20.644531h-61.941406zm0 0"/></g><path d="m286.96875 215.03125h61.941406v20.644531h-61.941406zm0 0" fill="#babac0"/><path d="m286.96875 256.324219h61.941406v20.644531h-61.941406zm0 0" fill="#babac0"/><path d="m286.96875 297.617188h61.941406v20.644531h-61.941406zm0 0" fill="#babac0"/></svg>
