<?xml version="1.0" encoding="UTF-8"?>
<svg xmlns="http://www.w3.org/2000/svg" xmlns:xlink="http://www.w3.org/1999/xlink" width="20pt" height="20pt" viewBox="0 0 512 512" version="1.1">
<g><g id="XMLID_93_"><g><g id="XMLID_1016_"><g id="XMLID_1017_"><g id="XMLID_1018_"><g id="XMLID_1019_"><g id="XMLID_1020_"><g id="XMLID_1021_"><g id="XMLID_1022_"><g id="XMLID_1023_"><g id="XMLID_1024_"><g id="XMLID_1063_"><g id="XMLID_1064_"><g id="XMLID_1065_"><g id="XMLID_1066_"><circle id="XMLID_1067_" cx="256" cy="256" fill="#ffad29" r="256"/></g></g></g></g></g></g></g></g></g></g></g></g></g></g></g><path d="m512 256c0-18.745-2.033-37.012-5.858-54.611l-62.235-62.235-17.657 2.595-82.453-82.749-153.797 30-90.179 330.049 82.03 82.03c23.473 7.092 48.362 10.921 74.149 10.921 141.385 0 256-114.615 256-256z" fill="#d49022"/><g><path d="m168.203 59v85.833h37v-48.833h101.594v48.833h37v-85.833z" fill="#605553"/><path d="m343.8 59v85.83h-37v-48.83h-50.8v-37z" fill="#4c403f"/><g><path d="m379.834 431.095h-247.668c-27.34 0-49.504-22.164-49.504-49.504v-215.792h346.675v215.792c.001 27.34-22.163 49.504-49.503 49.504z" fill="#605553"/><path d="m429.34 165.8v215.79c0 27.34-22.17 49.51-49.51 49.51h-123.83v-265.3z" fill="#4c403f"/><path d="m231.731 322.176h48.537v52.887h-48.537z" fill="#fed940" transform="matrix(0 1 -1 0 604.62 92.62)"/><g><g><path d="m256 324.35h26.44v48.54h-26.44z" fill="#fbbe2c"/></g></g><path d="m368.935 301.421-112.935 26.379-112.935-26.379c-43.912-10.257-74.973-49.409-74.973-94.503v-67.764h375.815v67.764c0 45.094-31.061 84.247-74.972 94.503z" fill="#776d6b"/><path d="m443.91 139.15v67.77c0 18.59-5.28 36.17-14.57 51.13-13.23 21.33-34.6 37.34-60.41 43.37l-58.79 13.73-39.37 9.2-14.77 3.45v-188.65z" fill="#605553"/><path d="m201.859 276.547h108.282v58.137h-108.282z" fill="#ffe780"/><path d="m256 276.55h54.14v58.13h-54.14z" fill="#fed940"/></g></g></g></svg>
