<?xml version="1.0" encoding="UTF-8"?>
<svg id="Capa_1" enable-background="new 0 0 512 512" height="20pt" viewBox="0 0 512 512" width="20pt" xmlns="http://www.w3.org/2000/svg"><g><g><g><g><g><g><g><g><g><g><g><g><circle cx="256" cy="256" fill="#d7e8ff" r="256"/></g></g></g></g></g></g></g></g></g></g></g><path d="m403.134 162.606-70.606-70.606-142.996 12.329v38.088l-113.943 85.635 88.134 88.134-80.078 80.078 107.417 107.417c20.739 5.422 42.499 8.319 64.938 8.319 141.385 0 256-114.615 256-256 0-14.074-1.154-27.876-3.339-41.333l-72.25-72.25z" fill="#adcfff"/><g><path d="m256 91.999h-76.528v77.536h22.508v-55.027h54.02l4.249-11.192z" fill="#ffa300"/><path d="m256 114.508h54.02v55.027h22.508v-77.536h-76.528z" fill="#fe8205"/><g><path d="m256 396.264h-172.355v-212.442h172.355l30.893 106.221z" fill="#606074"/><path d="m256 183.822h172.355v212.442h-172.355z" fill="#525264"/></g><g><path d="m256 275.178-180.411-47.126v-85.635h180.411l32.337 60.753z" fill="#525264"/><path d="m436.411 228.052-180.411 47.126v-132.761h180.411z" fill="#454553"/></g><g><path d="m256 360.962h-21.222v-64.534l21.222-6.753 3.804 35.644z" fill="#525264"/><path d="m277.222 360.962h-21.222v-71.287l21.222 6.753z" fill="#454553"/></g><g><path d="m256 296.428h-21.222v-42.501h21.222l3.804 21.251z" fill="#ffe48d"/><path d="m256 253.927h21.222v42.501h-21.222z" fill="#ffce00"/></g></g></g></svg>
