<svg height="20pt" viewBox="0 0 512 512" width="20pt" xmlns="http://www.w3.org/2000/svg"><path d="m512 256c0 141.386719-114.613281 256-256 256s-256-114.613281-256-256 114.613281-256 256-256 256 114.613281 256 256zm0 0" fill="#ff6"/><path d="m266.742188 511.757812c136.402343-5.632812 245.257812-117.972656 245.257812-255.757812 0-15.761719-1.433594-31.1875-4.160156-46.160156l-102.839844-102.839844-20.832031 15-18.789063 34.472656-234.746094 118.363282 31.21875 31.21875-11.933593 17.460937 18 17.90625-16.832031 54.679687zm0 0" fill="#ffd15e"/><path d="m332.847656 349.707031c-.054687 0-.109375.003907-.164062.003907l-6.464844 23.277343 6.464844 23.277344c.054687 0 .105468.003906.164062.003906 12.855469 0 23.28125-10.421875 23.28125-23.28125s-10.425781-23.28125-23.28125-23.28125zm0 0" fill="#cfe0e3"/><path d="m309.566406 372.988281c0 12.804688 10.335938 23.191407 23.117188 23.277344v-46.554687c-12.78125.089843-23.117188 10.472656-23.117188 23.277343zm0 0" fill="#e0f5f5"/><path d="m173.199219 349.707031c-.054688 0-.109375.003907-.164063.003907l-6.464844 23.277343 6.464844 23.277344c.054688 0 .109375.003906.164063.003906 12.855469 0 23.28125-10.421875 23.28125-23.28125s-10.425781-23.28125-23.28125-23.28125zm0 0" fill="#e0f5f5"/><path d="m149.917969 372.988281c0 12.804688 10.335937 23.191407 23.117187 23.277344v-46.554687c-12.78125.089843-23.117187 10.472656-23.117187 23.277343zm0 0" fill="#fff"/><path d="m377.019531 156.472656h-132.601562l-23.28125 66.058594 23.28125 66.0625h117.546875zm0 0" fill="#41828d"/><path d="m107 156.472656v9.808594l9.101562 79.875c2.667969 23.398438 23.996094 42.4375 47.550782 42.4375h80.765625v-132.121094zm0 0" fill="#70a2aa"/><path d="m363.390625 173.933594h-118.972656l-17.460938 48.597656 17.460938 48.601562h107.894531zm0 0" fill="#a0c1c6"/><path d="m125.445312 173.933594 8.003907 70.246094c1.664062 14.609374 15.496093 26.953124 30.203125 26.953124h80.765625v-97.199218zm0 0" fill="#cfe0e3"/><g fill="#fff"><path d="m235.6875 191.105469h17.460938v62.859375h-17.460938zm0 0"/><path d="m296.800781 191.105469h17.460938v62.859375h-17.460938zm0 0"/><path d="m174.574219 191.105469h17.460937v62.859375h-17.460937zm0 0"/></g><path d="m371.015625 107-22.679687 199.054688h-103.917969l-5.820313 8.730468 5.820313 8.730469h119.5l22.683593-199.054687h18.398438v-17.460938zm0 0" fill="#41828d"/><path d="m149.917969 306.054688h94.5v17.460937h-94.5zm0 0" fill="#70a2aa"/><path d="m332.847656 405-5.820312-8.730469 5.820312-8.730469c8.019532 0 14.550782-6.527343 14.550782-14.550781 0-8.023437-6.527344-14.550781-14.550782-14.550781l-5.820312-8.730469 5.820312-8.730469c17.648438 0 32.011719 14.363282 32.011719 32.011719 0 17.652344-14.363281 32.011719-32.011719 32.011719zm0 0" fill="#093239"/><path d="m332.847656 405c-17.652344 0-32.011718-14.359375-32.011718-32.011719 0-17.652343 14.359374-32.011719 32.011718-32.011719v17.460938c-8.023437 0-14.550781 6.527344-14.550781 14.550781 0 8.023438 6.523437 14.550781 14.550781 14.550781zm0 0" fill="#0d4a55"/><path d="m173.199219 405-5.820313-8.734375 5.820313-8.726563c8.023437 0 14.550781-6.527343 14.550781-14.550781 0-8.023437-6.527344-14.550781-14.550781-14.550781l-5.820313-8.726562 5.820313-8.734376c17.648437 0 32.011719 14.363282 32.011719 32.011719 0 17.652344-14.363282 32.011719-32.011719 32.011719zm0 0" fill="#0d4a55"/><path d="m173.199219 405c-17.652344 0-32.011719-14.359375-32.011719-32.011719 0-17.652343 14.359375-32.011719 32.011719-32.011719v17.460938c-8.023438 0-14.550781 6.527344-14.550781 14.550781 0 8.023438 6.527343 14.550781 14.550781 14.550781zm0 0" fill="#116371"/></svg>
