<?xml version="1.0" encoding="UTF-8"?>
<svg xmlns="http://www.w3.org/2000/svg" xmlns:xlink="http://www.w3.org/1999/xlink" width="20pt" height="20pt" viewBox="0 0 20 20" version="1.1">
<g id="surface1">
<path style=" stroke:none;fill-rule:nonzero;fill:rgb(34.509804%,59.215686%,81.960784%);fill-opacity:1;" d="M 20 10 C 20 11.988281 19.417969 13.84375 18.417969 15.398438 C 16.640625 18.167969 13.535156 20 10 20 C 6.464844 20 3.359375 18.167969 1.582031 15.398438 C 0.582031 13.84375 0 11.988281 0 10 C 0 8.011719 0.582031 6.15625 1.582031 4.601562 C 2.695312 2.871094 4.324219 1.503906 6.253906 0.726562 C 7.410156 0.257812 8.675781 0 10 0 C 11.324219 0 12.589844 0.257812 13.746094 0.726562 C 15.675781 1.503906 17.304688 2.871094 18.417969 4.601562 C 19.417969 6.15625 20 8.011719 20 10 Z M 20 10 "/>
<path style=" stroke:none;fill-rule:nonzero;fill:rgb(62.352941%,77.254902%,90.196078%);fill-opacity:1;" d="M 18.371094 8.371094 C 18.371094 10.035156 17.886719 11.589844 17.046875 12.894531 C 15.558594 15.210938 12.957031 16.742188 10 16.742188 C 7.042969 16.742188 4.441406 15.210938 2.953125 12.894531 C 2.113281 11.589844 1.628906 10.035156 1.628906 8.371094 C 1.628906 6.707031 2.113281 5.15625 2.953125 3.851562 C 3.882812 2.402344 5.25 1.257812 6.863281 0.605469 C 7.832031 0.214844 8.890625 0 10 0 C 11.109375 0 12.167969 0.214844 13.136719 0.605469 C 14.75 1.257812 16.117188 2.402344 17.046875 3.851562 C 17.886719 5.15625 18.371094 6.707031 18.371094 8.371094 Z M 18.371094 8.371094 "/>
<path style=" stroke:none;fill-rule:nonzero;fill:rgb(94.117647%,94.117647%,94.117647%);fill-opacity:1;" d="M 18.417969 2.902344 L 18.417969 15.398438 C 16.640625 18.167969 13.535156 20 10 20 C 8.21875 20 6.546875 19.535156 5.101562 18.71875 C 4.363281 18.304688 3.683594 17.796875 3.078125 17.21875 C 2.511719 16.675781 2.007812 16.0625 1.582031 15.398438 L 1.582031 2.902344 C 1.582031 2.039062 2.238281 1.335938 3.050781 1.335938 L 16.949219 1.335938 C 17.761719 1.335938 18.417969 2.039062 18.417969 2.902344 Z M 18.417969 2.902344 "/>
<path style=" stroke:none;fill-rule:nonzero;fill:rgb(83.137255%,83.137255%,83.137255%);fill-opacity:1;" d="M 1.582031 5.519531 L 18.417969 5.519531 L 18.417969 6.9375 L 1.582031 6.9375 Z M 1.582031 5.519531 "/>
<path style=" stroke:none;fill-rule:nonzero;fill:rgb(93.72549%,28.235294%,49.019608%);fill-opacity:1;" d="M 18.417969 2.804688 L 18.417969 5.941406 L 1.582031 5.941406 L 1.582031 2.804688 C 1.582031 1.996094 2.238281 1.335938 3.050781 1.335938 L 16.949219 1.335938 C 17.761719 1.335938 18.417969 1.996094 18.417969 2.804688 Z M 18.417969 2.804688 "/>
<path style=" stroke:none;fill-rule:nonzero;fill:rgb(100%,40%,54.901961%);fill-opacity:1;" d="M 18.417969 3.539062 L 18.417969 5.941406 L 1.582031 5.941406 L 1.582031 3.539062 C 1.582031 2.730469 2.238281 2.070312 3.050781 2.070312 L 16.949219 2.070312 C 17.761719 2.070312 18.417969 2.730469 18.417969 3.539062 Z M 18.417969 3.539062 "/>
<path style=" stroke:none;fill-rule:nonzero;fill:rgb(94.901961%,68.235294%,35.294118%);fill-opacity:1;" d="M 6.695312 0.898438 L 6.695312 2.445312 C 6.695312 2.820312 6.464844 3.144531 6.136719 3.277344 C 6.03125 3.320312 5.917969 3.34375 5.796875 3.34375 C 5.300781 3.34375 4.898438 2.941406 4.898438 2.445312 L 4.898438 0.898438 C 4.898438 0.402344 5.300781 0 5.796875 0 C 5.917969 0 6.03125 0.0234375 6.136719 0.0664062 C 6.246094 0.113281 6.347656 0.179688 6.429688 0.261719 C 6.59375 0.425781 6.695312 0.648438 6.695312 0.898438 Z M 6.695312 0.898438 "/>
<path style=" stroke:none;fill-rule:nonzero;fill:rgb(97.647059%,87.45098%,45.098039%);fill-opacity:1;" d="M 6.695312 0.898438 L 6.695312 2.445312 C 6.695312 2.820312 6.464844 3.144531 6.136719 3.277344 C 5.808594 3.144531 5.578125 2.820312 5.578125 2.445312 L 5.578125 0.898438 C 5.578125 0.523438 5.808594 0.199219 6.136719 0.0664062 C 6.246094 0.113281 6.347656 0.179688 6.429688 0.261719 C 6.59375 0.425781 6.695312 0.648438 6.695312 0.898438 Z M 6.695312 0.898438 "/>
<path style=" stroke:none;fill-rule:nonzero;fill:rgb(94.901961%,68.235294%,35.294118%);fill-opacity:1;" d="M 15.101562 0.898438 L 15.101562 2.445312 C 15.101562 2.820312 14.871094 3.144531 14.542969 3.277344 C 14.4375 3.320312 14.324219 3.34375 14.203125 3.34375 C 13.707031 3.34375 13.304688 2.941406 13.304688 2.445312 L 13.304688 0.898438 C 13.304688 0.402344 13.707031 0 14.203125 0 C 14.324219 0 14.4375 0.0234375 14.542969 0.0664062 C 14.65625 0.113281 14.753906 0.179688 14.839844 0.261719 C 15 0.425781 15.101562 0.648438 15.101562 0.898438 Z M 15.101562 0.898438 "/>
<path style=" stroke:none;fill-rule:nonzero;fill:rgb(97.647059%,87.45098%,45.098039%);fill-opacity:1;" d="M 15.101562 0.898438 L 15.101562 2.445312 C 15.101562 2.820312 14.871094 3.144531 14.542969 3.277344 C 14.21875 3.144531 13.988281 2.820312 13.988281 2.445312 L 13.988281 0.898438 C 13.988281 0.523438 14.21875 0.199219 14.542969 0.0664062 C 14.65625 0.113281 14.753906 0.179688 14.839844 0.261719 C 15 0.425781 15.101562 0.648438 15.101562 0.898438 Z M 15.101562 0.898438 "/>
<path style=" stroke:none;fill-rule:nonzero;fill:rgb(28.235294%,29.411765%,49.803922%);fill-opacity:1;" d="M 10.46875 10.339844 L 9.53125 10.339844 C 9.183594 10.339844 8.902344 10.058594 8.902344 9.710938 L 8.902344 8.777344 C 8.902344 8.429688 9.183594 8.148438 9.53125 8.148438 L 10.46875 8.148438 C 10.816406 8.148438 11.097656 8.429688 11.097656 8.777344 L 11.097656 9.710938 C 11.097656 10.058594 10.816406 10.339844 10.46875 10.339844 Z M 10.46875 10.339844 "/>
<path style=" stroke:none;fill-rule:nonzero;fill:rgb(28.235294%,29.411765%,49.803922%);fill-opacity:1;" d="M 13.390625 10.339844 L 12.453125 10.339844 C 12.105469 10.339844 11.824219 10.058594 11.824219 9.710938 L 11.824219 8.777344 C 11.824219 8.429688 12.105469 8.148438 12.453125 8.148438 L 13.390625 8.148438 C 13.738281 8.148438 14.019531 8.429688 14.019531 8.777344 L 14.019531 9.710938 C 14.019531 10.058594 13.738281 10.339844 13.390625 10.339844 Z M 13.390625 10.339844 "/>
<path style=" stroke:none;fill-rule:nonzero;fill:rgb(93.72549%,28.235294%,49.019608%);fill-opacity:1;" d="M 16.3125 10.339844 L 15.375 10.339844 C 15.027344 10.339844 14.746094 10.058594 14.746094 9.710938 L 14.746094 8.777344 C 14.746094 8.429688 15.027344 8.148438 15.375 8.148438 L 16.3125 8.148438 C 16.65625 8.148438 16.941406 8.429688 16.941406 8.777344 L 16.941406 9.710938 C 16.941406 10.058594 16.65625 10.339844 16.3125 10.339844 Z M 16.3125 10.339844 "/>
<path style=" stroke:none;fill-rule:nonzero;fill:rgb(28.235294%,29.411765%,49.803922%);fill-opacity:1;" d="M 4.625 13.207031 L 3.6875 13.207031 C 3.34375 13.207031 3.058594 12.921875 3.058594 12.574219 L 3.058594 11.640625 C 3.058594 11.292969 3.34375 11.011719 3.6875 11.011719 L 4.625 11.011719 C 4.972656 11.011719 5.253906 11.292969 5.253906 11.640625 L 5.253906 12.574219 C 5.253906 12.921875 4.972656 13.207031 4.625 13.207031 Z M 4.625 13.207031 "/>
<path style=" stroke:none;fill-rule:nonzero;fill:rgb(28.235294%,29.411765%,49.803922%);fill-opacity:1;" d="M 7.546875 13.207031 L 6.609375 13.207031 C 6.261719 13.207031 5.980469 12.921875 5.980469 12.574219 L 5.980469 11.640625 C 5.980469 11.292969 6.261719 11.011719 6.609375 11.011719 L 7.546875 11.011719 C 7.894531 11.011719 8.175781 11.292969 8.175781 11.640625 L 8.175781 12.574219 C 8.175781 12.921875 7.894531 13.207031 7.546875 13.207031 Z M 7.546875 13.207031 "/>
<path style=" stroke:none;fill-rule:nonzero;fill:rgb(28.235294%,29.411765%,49.803922%);fill-opacity:1;" d="M 10.46875 13.207031 L 9.53125 13.207031 C 9.183594 13.207031 8.902344 12.921875 8.902344 12.574219 L 8.902344 11.640625 C 8.902344 11.292969 9.183594 11.011719 9.53125 11.011719 L 10.46875 11.011719 C 10.816406 11.011719 11.097656 11.292969 11.097656 11.640625 L 11.097656 12.574219 C 11.097656 12.921875 10.816406 13.207031 10.46875 13.207031 Z M 10.46875 13.207031 "/>
<path style=" stroke:none;fill-rule:nonzero;fill:rgb(28.235294%,29.411765%,49.803922%);fill-opacity:1;" d="M 13.390625 13.207031 L 12.453125 13.207031 C 12.105469 13.207031 11.824219 12.921875 11.824219 12.574219 L 11.824219 11.640625 C 11.824219 11.292969 12.105469 11.011719 12.453125 11.011719 L 13.390625 11.011719 C 13.738281 11.011719 14.019531 11.292969 14.019531 11.640625 L 14.019531 12.574219 C 14.019531 12.921875 13.738281 13.207031 13.390625 13.207031 Z M 13.390625 13.207031 "/>
<path style=" stroke:none;fill-rule:nonzero;fill:rgb(93.72549%,28.235294%,49.019608%);fill-opacity:1;" d="M 16.3125 13.207031 L 15.375 13.207031 C 15.027344 13.207031 14.746094 12.921875 14.746094 12.574219 L 14.746094 11.640625 C 14.746094 11.292969 15.027344 11.011719 15.375 11.011719 L 16.3125 11.011719 C 16.65625 11.011719 16.941406 11.292969 16.941406 11.640625 L 16.941406 12.574219 C 16.941406 12.921875 16.65625 13.207031 16.3125 13.207031 Z M 16.3125 13.207031 "/>
<path style=" stroke:none;fill-rule:nonzero;fill:rgb(28.235294%,29.411765%,49.803922%);fill-opacity:1;" d="M 4.625 16.070312 L 3.6875 16.070312 C 3.34375 16.070312 3.058594 15.789062 3.058594 15.441406 L 3.058594 14.507812 C 3.058594 14.160156 3.34375 13.878906 3.6875 13.878906 L 4.625 13.878906 C 4.972656 13.878906 5.253906 14.160156 5.253906 14.507812 L 5.253906 15.441406 C 5.253906 15.789062 4.972656 16.070312 4.625 16.070312 Z M 4.625 16.070312 "/>
<path style=" stroke:none;fill-rule:nonzero;fill:rgb(28.235294%,29.411765%,49.803922%);fill-opacity:1;" d="M 7.546875 16.070312 L 6.609375 16.070312 C 6.261719 16.070312 5.980469 15.789062 5.980469 15.441406 L 5.980469 14.507812 C 5.980469 14.160156 6.261719 13.878906 6.609375 13.878906 L 7.546875 13.878906 C 7.894531 13.878906 8.175781 14.160156 8.175781 14.507812 L 8.175781 15.441406 C 8.175781 15.789062 7.894531 16.070312 7.546875 16.070312 Z M 7.546875 16.070312 "/>
<path style=" stroke:none;fill-rule:nonzero;fill:rgb(28.235294%,29.411765%,49.803922%);fill-opacity:1;" d="M 10.46875 16.070312 L 9.53125 16.070312 C 9.183594 16.070312 8.902344 15.789062 8.902344 15.441406 L 8.902344 14.507812 C 8.902344 14.160156 9.183594 13.878906 9.53125 13.878906 L 10.46875 13.878906 C 10.816406 13.878906 11.097656 14.160156 11.097656 14.507812 L 11.097656 15.441406 C 11.097656 15.789062 10.816406 16.070312 10.46875 16.070312 Z M 10.46875 16.070312 "/>
<path style=" stroke:none;fill-rule:nonzero;fill:rgb(28.235294%,29.411765%,49.803922%);fill-opacity:1;" d="M 13.390625 16.070312 L 12.453125 16.070312 C 12.105469 16.070312 11.824219 15.789062 11.824219 15.441406 L 11.824219 14.507812 C 11.824219 14.160156 12.105469 13.878906 12.453125 13.878906 L 13.390625 13.878906 C 13.738281 13.878906 14.019531 14.160156 14.019531 14.507812 L 14.019531 15.441406 C 14.019531 15.789062 13.738281 16.070312 13.390625 16.070312 Z M 13.390625 16.070312 "/>
<path style=" stroke:none;fill-rule:nonzero;fill:rgb(93.72549%,28.235294%,49.019608%);fill-opacity:1;" d="M 16.3125 16.070312 L 15.375 16.070312 C 15.027344 16.070312 14.746094 15.789062 14.746094 15.441406 L 14.746094 14.507812 C 14.746094 14.160156 15.027344 13.878906 15.375 13.878906 L 16.3125 13.878906 C 16.65625 13.878906 16.941406 14.160156 16.941406 14.507812 L 16.941406 15.441406 C 16.941406 15.789062 16.65625 16.070312 16.3125 16.070312 Z M 16.3125 16.070312 "/>
<path style=" stroke:none;fill-rule:nonzero;fill:rgb(28.235294%,29.411765%,49.803922%);fill-opacity:1;" d="M 5.253906 17.371094 L 5.253906 18.308594 C 5.253906 18.464844 5.195312 18.609375 5.101562 18.71875 C 4.363281 18.304688 3.683594 17.796875 3.078125 17.21875 C 3.148438 16.945312 3.394531 16.742188 3.6875 16.742188 L 4.625 16.742188 C 4.972656 16.742188 5.253906 17.023438 5.253906 17.371094 Z M 5.253906 17.371094 "/>
<path style=" stroke:none;fill-rule:nonzero;fill:rgb(28.235294%,29.411765%,49.803922%);fill-opacity:1;" d="M 7.546875 18.9375 L 6.609375 18.9375 C 6.261719 18.9375 5.980469 18.65625 5.980469 18.308594 L 5.980469 17.371094 C 5.980469 17.023438 6.261719 16.742188 6.609375 16.742188 L 7.546875 16.742188 C 7.894531 16.742188 8.175781 17.023438 8.175781 17.371094 L 8.175781 18.308594 C 8.175781 18.65625 7.894531 18.9375 7.546875 18.9375 Z M 7.546875 18.9375 "/>
<path style=" stroke:none;fill-rule:nonzero;fill:rgb(28.235294%,29.411765%,49.803922%);fill-opacity:1;" d="M 10.46875 18.9375 L 9.53125 18.9375 C 9.183594 18.9375 8.902344 18.65625 8.902344 18.308594 L 8.902344 17.371094 C 8.902344 17.023438 9.183594 16.742188 9.53125 16.742188 L 10.46875 16.742188 C 10.816406 16.742188 11.097656 17.023438 11.097656 17.371094 L 11.097656 18.308594 C 11.097656 18.65625 10.816406 18.9375 10.46875 18.9375 Z M 10.46875 18.9375 "/>
</g>
</svg>
