<?xml version="1.0" encoding="iso-8859-1"?>
<!-- Generator: Adobe Illustrator 19.0.0, SVG Export Plug-In . SVG Version: 6.00 Build 0)  -->
<svg width="20pt" height="20pt" version="1.1" id="Capa_1" xmlns="http://www.w3.org/2000/svg" xmlns:xlink="http://www.w3.org/1999/xlink" x="0px" y="0px"
	 viewBox="0 0 512 512" style="enable-background:new 0 0 512 512;" xml:space="preserve">
<circle style="fill:#1976D1;" cx="256" cy="256" r="256"/>
<path style="fill:#1565BF;" d="M512,256c0-7.021-0.294-13.971-0.849-20.849L419,143l-1.866,7.134L382.5,115.5l-54.753,169.253
	L158.494,115.5L93,385l124.056,124.056C229.755,510.994,242.76,512,256,512C397.385,512,512,397.385,512,256z"/>
<rect x="93" y="143" style="fill:#FFFFFF;" width="326" height="242"/>
<rect x="255.57" y="143" style="fill:#E6E6E6;" width="163.43" height="242"/>
<rect x="93" y="143" style="fill:#FF1B1B;" width="326" height="62"/>
<rect x="255.57" y="143" style="fill:#D60000;" width="163.43" height="62"/>
<g>
	<rect x="115.75" y="229.67" style="fill:#CED7DB;" width="27.667" height="27.667"/>
	<rect x="166.32" y="229.67" style="fill:#CED7DB;" width="27.667" height="27.667"/>
	<rect x="216.88" y="229.67" style="fill:#CED7DB;" width="27.667" height="27.667"/>
</g>
<g>
	<rect x="267.45" y="229.67" style="fill:#AFBDC4;" width="27.667" height="27.667"/>
	<rect x="318.02" y="229.67" style="fill:#AFBDC4;" width="27.667" height="27.667"/>
	<rect x="368.58" y="229.67" style="fill:#AFBDC4;" width="27.667" height="27.667"/>
</g>
<g>
	<rect x="115.75" y="278.17" style="fill:#CED7DB;" width="27.667" height="27.667"/>
	<rect x="166.32" y="278.17" style="fill:#CED7DB;" width="27.667" height="27.667"/>
	<rect x="216.88" y="278.17" style="fill:#CED7DB;" width="27.667" height="27.667"/>
</g>
<rect x="267.45" y="278.17" style="fill:#AFBDC4;" width="27.667" height="27.667"/>
<rect x="318.02" y="278.17" style="fill:#D60000;" width="27.667" height="27.667"/>
<rect x="368.58" y="278.17" style="fill:#AFBDC4;" width="27.667" height="27.667"/>
<g>
	<rect x="115.75" y="326.67" style="fill:#CED7DB;" width="27.667" height="27.667"/>
	<rect x="166.32" y="326.67" style="fill:#CED7DB;" width="27.667" height="27.667"/>
	<rect x="216.88" y="326.67" style="fill:#CED7DB;" width="27.667" height="27.667"/>
</g>
<g>
	<rect x="267.45" y="326.67" style="fill:#AFBDC4;" width="27.667" height="27.667"/>
	<rect x="318.02" y="326.67" style="fill:#AFBDC4;" width="27.667" height="27.667"/>
	<rect x="368.58" y="326.67" style="fill:#AFBDC4;" width="27.667" height="27.667"/>
</g>
<rect x="129.5" y="115.5" style="fill:#FFFFFF;" width="28.994" height="47"/>
<rect x="353.51" y="115.5" style="fill:#E6E6E6;" width="28.994" height="47"/>
<g>
</g>
<g>
</g>
<g>
</g>
<g>
</g>
<g>
</g>
<g>
</g>
<g>
</g>
<g>
</g>
<g>
</g>
<g>
</g>
<g>
</g>
<g>
</g>
<g>
</g>
<g>
</g>
<g>
</g>
</svg>
