<svg version="1.1" xmlns="http://www.w3.org/2000/svg" height="20pt" viewBox="0 0 512 512" width="20pt">
<path d="M0 0 C1.01790619 0.00215515 2.03581238 0.0043103 3.08456421 0.00653076 C17.69363523 0.05620146 32.02575853 0.30709809 46.375 3.3125 C47.34985352 3.51117676 48.32470703 3.70985352 49.32910156 3.91455078 C97.7109774 14.03517194 141.69928269 35.9516877 177.375 70.3125 C178.3640332 71.26068604 178.3640332 71.26068604 179.37304688 72.22802734 C188.86130305 81.37247479 197.6012044 90.66984009 205.375 101.3125 C206.23306152 102.46355017 207.09113451 103.61459177 207.94921875 104.765625 C213.98736829 112.95680614 219.34595521 121.47054105 224.375 130.3125 C224.73948242 130.94430176 225.10396484 131.57610352 225.47949219 132.22705078 C247.08534998 169.97532572 256.85198095 212.74189997 256.6875 255.9375 C256.68534485 256.95540619 256.6831897 257.97331238 256.68096924 259.02206421 C256.63129854 273.63113523 256.38040191 287.96325853 253.375 302.3125 C253.07698486 303.77478027 253.07698486 303.77478027 252.77294922 305.26660156 C242.65232806 353.6484774 220.7358123 397.63678269 186.375 433.3125 C185.74287598 433.97185547 185.11075195 434.63121094 184.45947266 435.31054688 C175.31502521 444.79880305 166.01765991 453.5387044 155.375 461.3125 C154.22394983 462.17056152 153.07290823 463.02863451 151.921875 463.88671875 C143.73224019 469.92427396 135.22961724 475.30707302 126.375 480.3125 C125.66778809 480.7146875 124.96057617 481.116875 124.23193359 481.53125 C101.09654164 494.5566741 75.92537591 503.30551461 49.9375 508.625 C49.21860596 508.77235596 48.49971191 508.91971191 47.7590332 509.0715332 C33.08339502 511.86090125 18.55831162 512.66142619 3.64770508 512.62817383 C0.70811513 512.6250221 -2.2304558 512.64854926 -5.16992188 512.67382812 C-18.54306192 512.71848737 -31.43916711 511.51301542 -44.625 509.3125 C-46.33055054 509.03031616 -46.33055054 509.03031616 -48.07055664 508.74243164 C-91.33802759 500.97044532 -132.38793216 480.98345309 -165.625 452.3125 C-166.37007813 451.67828125 -167.11515625 451.0440625 -167.8828125 450.390625 C-181.38779833 438.57948485 -194.05918743 425.82889772 -204.625 411.3125 C-205.48149066 410.16255169 -206.33826433 409.01281411 -207.1953125 407.86328125 C-213.23534209 399.67315742 -218.61867614 391.16870382 -223.625 382.3125 C-224.0271875 381.60528809 -224.429375 380.89807617 -224.84375 380.16943359 C-237.8691741 357.03404164 -246.61801461 331.86287591 -251.9375 305.875 C-252.08485596 305.15610596 -252.23221191 304.43721191 -252.3840332 303.6965332 C-255.35789088 288.05024391 -255.99800362 272.57681954 -255.9375 256.6875 C-255.93534485 255.66959381 -255.9331897 254.65168762 -255.93096924 253.60293579 C-255.88129854 238.99386477 -255.63040191 224.66174147 -252.625 210.3125 C-252.42632324 209.33764648 -252.22764648 208.36279297 -252.02294922 207.35839844 C-241.90232806 158.9765226 -219.9858123 114.98821731 -185.625 79.3125 C-184.99287598 78.65314453 -184.36075195 77.99378906 -183.70947266 77.31445312 C-174.56502521 67.82619695 -165.26765991 59.0862956 -154.625 51.3125 C-153.47394983 50.45443848 -152.32290823 49.59636549 -151.171875 48.73828125 C-142.98224019 42.70072604 -134.47961724 37.31792698 -125.625 32.3125 C-124.91778809 31.9103125 -124.21057617 31.508125 -123.48193359 31.09375 C-100.34654164 18.0683259 -75.17537591 9.31948539 -49.1875 4 C-48.46860596 3.85264404 -47.74971191 3.70528809 -47.0090332 3.5534668 C-31.36274391 0.57960912 -15.88931954 -0.06050362 0 0 Z " fill="#66D58A" transform="translate(255.625,-0.3125)"/>
<path d="M0 0 C0.66 0 1.32 0 2 0 C3.21281433 1.23158264 3.21281433 1.23158264 4.71166992 3.07836914 C10.61337678 10.01037768 17.17490016 16.31848416 23.61328125 22.74609375 C25.03352715 24.16701411 26.45362465 25.58808282 27.87358093 27.0092926 C30.83475395 29.97193302 33.79771107 32.93277415 36.76196289 35.89233398 C40.56635112 39.6909941 44.36619014 43.49416837 48.16473103 47.29867458 C51.08905389 50.22660231 54.01574346 53.15215493 56.94316673 56.0769825 C58.34617758 57.47932549 59.74844383 58.88241385 61.14995766 60.28625298 C63.10057877 62.23940272 65.05435739 64.18933703 67.0090332 66.13842773 C67.5892926 66.72071136 68.169552 67.302995 68.76739502 67.90292358 C71.61324483 70.80869425 71.61324483 70.80869425 75 73 C80.26241603 90.26072457 80.38053656 108.75739849 80.3125 126.625 C80.31034485 127.64290619 80.3081897 128.66081238 80.30596924 129.70956421 C80.25629854 144.31863523 80.00540191 158.65075853 77 173 C76.70198486 174.46228027 76.70198486 174.46228027 76.39794922 175.95410156 C66.27732806 224.3359774 44.3608123 268.32428269 10 304 C9.36787598 304.65935547 8.73575195 305.31871094 8.08447266 305.99804688 C-1.05997479 315.48630305 -10.35734009 324.2262044 -21 332 C-22.15105017 332.85806152 -23.30209177 333.71613451 -24.453125 334.57421875 C-32.64275981 340.61177396 -41.14538276 345.99457302 -50 351 C-50.70721191 351.4021875 -51.41442383 351.804375 -52.14306641 352.21875 C-75.27845836 365.2441741 -100.44962409 373.99301461 -126.4375 379.3125 C-127.15639404 379.45985596 -127.87528809 379.60721191 -128.6159668 379.7590332 C-143.29160498 382.54840125 -157.81668838 383.34892619 -172.72729492 383.31567383 C-175.66688487 383.3125221 -178.6054558 383.33604926 -181.54492188 383.36132812 C-194.05367464 383.40296263 -206.262462 382.56062966 -218.59780884 380.41000366 C-220.18552155 380.13901439 -221.78163232 379.91298287 -223.38241577 379.73477173 C-227.89836756 379.08011402 -230.29087572 378.10238489 -233.18014526 374.5085907 C-237.33194172 369.54976744 -241.8429773 365.02420884 -246.42358398 360.46289062 C-247.80037071 359.08588486 -247.80037071 359.08588486 -249.20497131 357.68106079 C-251.69811208 355.18763553 -254.19430285 352.69728479 -256.69109225 350.20751381 C-259.3087324 347.59616557 -261.92350194 344.98194604 -264.53858948 342.36804199 C-269.48041793 337.42930975 -274.42478776 332.49313007 -279.37009722 327.55788374 C-285.00454925 321.93464619 -290.63612957 316.30853637 -296.26748168 310.68219471 C-307.84181661 299.11828543 -319.41971611 287.55795196 -331 276 C-330.34 275.67 -329.68 275.34 -329 275 C-325.77261803 276.54820787 -322.67894724 278.29705889 -319.5546875 280.04296875 C-307.65314554 285.68419316 -295.06365099 286.58332361 -282.12890625 286.45410156 C-280.51080351 286.45296963 -278.89269873 286.45361367 -277.27459717 286.45587158 C-272.93665389 286.45700618 -268.59916476 286.43370339 -264.26132584 286.40557575 C-259.70768873 286.38034986 -255.154038 286.37820357 -250.6003418 286.37347412 C-242.00177878 286.36110598 -233.40342234 286.32836897 -224.80494976 286.28807616 C-215.00551997 286.24316514 -205.20607964 286.22132309 -195.40657234 286.20129442 C-175.27093351 286.15962994 -155.13547984 286.08939945 -135 286 C-136.28015991 284.75911621 -136.28015991 284.75911621 -137.58618164 283.49316406 C-140.74261722 280.42707828 -143.8825986 277.34459648 -147.01782227 274.25683594 C-148.37828014 272.92155669 -149.74318691 271.59079482 -151.11254883 270.26464844 C-153.07773993 268.35995761 -155.02647032 266.4397068 -156.97265625 264.515625 C-157.59028336 263.92380432 -158.20791046 263.33198364 -158.84425354 262.722229 C-160.54321289 261.02441406 -160.54321289 261.02441406 -163 258 C-162.48574426 253.74497888 -160.07771078 250.06670741 -158.125 246.3125 C-148.91751549 228.22949735 -146.80241428 207.58768732 -153 188 C-160.28064039 169.57797597 -171.60298083 156.4721655 -188.5703125 146.46875 C-192.02787199 144.1978724 -194.44964227 141.37291108 -197.08984375 138.21630859 C-200.63389851 134.10422666 -204.57009315 130.36757959 -208.4375 126.5625 C-210.06343804 124.96190783 -211.68726587 123.35916813 -213.30859375 121.75390625 C-214.01814209 121.05595947 -214.72769043 120.3580127 -215.45874023 119.63891602 C-217 118 -217 118 -217 117 C-216.18260943 116.99945523 -215.36521887 116.99891047 -214.52305889 116.99834919 C-194.55455735 116.98332543 -174.58627764 116.94065381 -154.61789989 116.86790943 C-144.9609803 116.83338333 -135.30420162 116.80792026 -125.6472168 116.80444336 C-117.22170163 116.80138613 -108.79643822 116.78066154 -100.37102014 116.73947543 C-95.91744832 116.71830196 -91.46423297 116.70546314 -87.01061058 116.71384621 C-59.9920353 116.75609177 -34.35551327 116.07924732 -13 97 C-12.31421875 96.39542969 -11.6284375 95.79085937 -10.921875 95.16796875 C1.74667854 83.29724396 10.40998292 64.8758975 11.28125 47.51953125 C11.72253868 32.28507735 9.40986693 17.50673942 1.34375 4.28515625 C0 2 0 2 0 0 Z " fill="#5DB47A" transform="translate(432,129)"/>
<path d="M0 0 C0.76536072 -0.0049649 1.53072144 -0.00992981 2.3192749 -0.01504517 C4.8340345 -0.02956378 7.34873088 -0.03645404 9.86352539 -0.04199219 C10.73077303 -0.04481956 11.59802067 -0.04764694 12.49154854 -0.05056 C17.08763046 -0.06551631 21.68368132 -0.07476631 26.27978516 -0.07910156 C30.98298474 -0.08455888 35.68589082 -0.10853889 40.38899899 -0.13707352 C44.04316482 -0.15588034 47.69726276 -0.16091514 51.35147285 -0.16243744 C53.08269403 -0.16542762 54.81391509 -0.1733299 56.54508781 -0.18662262 C70.71207672 -0.2875765 85.09412636 0.30062457 97.96118164 6.91113281 C99.02671265 7.43827881 99.02671265 7.43827881 100.11376953 7.97607422 C105.62711319 10.78238448 110.47485879 13.94408591 115.02368164 18.16113281 C115.8293457 18.8765625 116.63500977 19.59199219 117.46508789 20.32910156 C132.43014376 34.33456607 140.72316705 52.66701522 141.4309082 73.15820312 C141.66771646 92.24800382 134.94904798 110.9349266 122.02368164 125.16113281 C121.37012695 125.90621094 120.71657227 126.65128906 120.04321289 127.41894531 C107.42402776 140.98054682 88.65033672 149.10954881 70.23474693 150.43353844 C66.01506642 150.52763148 61.80511026 150.53329305 57.58496094 150.50170898 C55.97715267 150.50086069 54.36934324 150.50134179 52.76153564 150.5030365 C48.43795882 150.50389 44.11463655 150.48637003 39.79111838 150.46531463 C35.25747231 150.44643904 30.72381908 150.44478887 26.19013977 150.4412384 C17.62339452 150.43194968 9.05676544 150.40737929 0.49007112 150.37718993 C-9.27060863 150.3435466 -19.0312942 150.32713504 -28.79201758 150.31210363 C-48.85351577 150.28082657 -68.91490972 150.22812843 -88.97631836 150.16113281 C-88.0342381 149.05064774 -87.09050912 147.94156124 -86.14610291 146.83305359 C-85.62074416 146.21527888 -85.09538542 145.59750418 -84.55410671 144.96100903 C-82.34329702 142.43900804 -79.96299427 140.12589562 -77.54272461 137.80566406 C-76.5545221 136.84466367 -75.56690763 135.88305829 -74.57983398 134.92089844 C-73.04911823 133.43372656 -71.51497238 131.95088576 -69.97070312 130.4777832 C-68.46246061 129.03584747 -66.97039867 127.57873379 -65.48022461 126.11816406 C-64.59149658 125.26198486 -63.70276855 124.40580566 -62.78710938 123.52368164 C-60.73695343 121.37869993 -60.73695343 121.37869993 -61.08813477 119.0637207 C-62.22906229 116.61972724 -63.44196637 114.21730425 -64.70678711 111.83520508 C-73.95141849 94.32839299 -77.79061256 74.95647224 -72.53540039 55.37011719 C-66.03416532 34.88075731 -52.70190938 18.05176989 -33.71069336 7.95410156 C-23.02573777 2.61445647 -11.94550053 0.01888455 0 0 Z " fill="#E7ECF3" transform="translate(302.976318359375,95.8388671875)"/>
<path d="M0 0 C1.80825908 -0.00644208 3.61651716 -0.01317145 5.42477417 -0.02017212 C9.20540783 -0.03210052 12.98595044 -0.03585769 16.76660156 -0.03466797 C21.56735942 -0.03446538 26.36752134 -0.061725 31.1681385 -0.09621239 C34.90209535 -0.11865665 38.63591293 -0.12250015 42.36993027 -0.12144852 C44.13744019 -0.12377985 45.90495546 -0.13246078 47.67239761 -0.14811325 C71.46053969 -0.33901879 92.16350325 5.91946419 109.79296875 22.54296875 C125.40757487 39.08288486 131.24975244 58.7731474 130.6484375 81.01953125 C130.09878945 93.83457551 125.7088563 105.64000869 118.46875 116.21484375 C117.23071541 118.24083534 117.23071541 118.24083534 117.70274353 120.28620911 C118.94465955 123.78797904 121.81628756 126.06359923 124.43359375 128.59765625 C125.03147202 129.188918 125.62935028 129.78017975 126.24534607 130.38935852 C128.15399502 132.27461369 130.07252335 134.1494053 131.9921875 136.0234375 C133.91364173 137.90989082 135.83296344 139.79844618 137.7497406 141.68965149 C138.94296497 142.86582476 140.13924669 144.03890547 141.33876038 145.20866394 C142.72096765 146.56576867 144.07818139 147.94825546 145.4296875 149.3359375 C145.4296875 149.6659375 145.4296875 149.9959375 145.4296875 150.3359375 C124.19273415 150.42964584 102.95581521 150.50004602 81.71869659 150.54318619 C71.85650189 150.56375507 61.99443613 150.59176634 52.13232422 150.63769531 C43.53006221 150.67773771 34.92789365 150.70341148 26.32554102 150.71229148 C21.77647478 150.71747695 17.22767573 150.72954438 12.67869568 150.75885773 C8.38424859 150.78630286 4.09017504 150.79432472 -0.20435143 150.78836823 C-1.76828235 150.78945561 -3.33222768 150.79723447 -4.89608192 150.8127594 C-25.56278018 151.00760807 -43.97332898 145.47896493 -59.5703125 131.3359375 C-60.35148437 130.63597656 -61.13265625 129.93601562 -61.9375 129.21484375 C-67.59640027 123.87032683 -71.7831709 118.12241931 -75.5703125 111.3359375 C-76.03308594 110.50707031 -76.49585937 109.67820312 -76.97265625 108.82421875 C-85.44592347 92.00645737 -87.44117603 71.41760196 -82.015625 53.3828125 C-77.60536416 40.32435565 -70.42947414 29.82556535 -60.5703125 20.3359375 C-59.60544922 19.34207031 -59.60544922 19.34207031 -58.62109375 18.328125 C-50.65565849 10.62186876 -39.22168112 5.12646652 -28.5703125 2.3359375 C-27.92893341 2.15920502 -27.28755432 1.98247253 -26.6267395 1.80038452 C-17.87133814 -0.28452972 -8.9419675 0.00753325 0 0 Z " fill="#E8ECF3" transform="translate(152.5703125,265.6640625)"/>
<path d="M0 0 C2.24411555 0.02513461 4.48825848 0.04793858 6.73242188 0.06835938 C12.17702676 0.1186049 17.61775199 0.21652912 23.0625 0.3125 C23.0625 9.2225 23.0625 18.1325 23.0625 27.3125 C19.96875 27.869375 19.96875 27.869375 16.8125 28.4375 C4.03240388 31.22026287 -6.85092892 37.12844248 -14.78515625 47.796875 C-16.3340957 50.24777673 -17.67155063 52.70539634 -18.9375 55.3125 C-19.27652344 55.9725 -19.61554688 56.6325 -19.96484375 57.3125 C-24.29213992 67.52252599 -23.18487076 81.56651942 -19.19140625 91.640625 C-13.04479677 104.73807324 -4.61843864 113.09064351 9.0625 118.3125 C13.67349548 119.62942019 18.34161854 120.46274134 23.0625 121.3125 C23.0625 130.2225 23.0625 139.1325 23.0625 148.3125 C-16.8675 148.3125 -56.7975 148.3125 -97.9375 148.3125 C-94.22327431 143.9792367 -90.79287715 140.06951977 -86.72265625 136.17578125 C-85.32370117 134.81549805 -85.32370117 134.81549805 -83.89648438 133.42773438 C-82.43818066 132.01298428 -80.9764592 130.60259684 -79.50463867 129.2019043 C-78.06619346 127.82975779 -76.64412468 126.44050719 -75.22265625 125.05078125 C-74.37582275 124.23649658 -73.52898926 123.42221191 -72.65649414 122.58325195 C-70.69897084 120.50891417 -70.69897084 120.50891417 -71.06298828 118.22875977 C-72.18407803 115.77218986 -73.40176645 113.37127341 -74.66796875 110.98657227 C-83.91260013 93.47976017 -87.7517942 74.10783943 -82.49658203 54.52148438 C-75.91318099 33.7731694 -62.74099139 18.09087356 -44.11328125 7.234375 C-42.73223965 6.57060886 -41.33820699 5.93369348 -39.9375 5.3125 C-38.97303955 4.87204346 -38.0085791 4.43158691 -37.01489258 3.9777832 C-24.89420813 -0.8349041 -12.86776731 -0.25242123 0 0 Z " fill="#FEFEFE" transform="translate(312.9375,96.6875)"/>
<path d="M0 0 C1.01252838 0.00141495 2.02505676 0.0028299 3.06826782 0.00428772 C6.28773001 0.00986482 9.50712149 0.02241313 12.7265625 0.03515625 C14.91536358 0.04017421 17.10416575 0.0447366 19.29296875 0.04882812 C24.64588219 0.0589739 29.99864362 0.07855384 35.3515625 0.09765625 C35.3515625 13.62765625 35.3515625 27.15765625 35.3515625 41.09765625 C32.7115625 39.11765625 30.0715625 37.13765625 27.3515625 35.09765625 C20.11118073 31.47746537 12.40568346 30.50049724 4.5703125 32.9765625 C-3.43472013 36.62946143 -8.22436708 42.04275134 -11.6484375 50.09765625 C-12.53534693 57.59291041 -12.63137735 65.50206136 -8.6484375 72.09765625 C-0.70981438 81.99444814 8.8579876 90.68257889 17.8515625 99.59765625 C20.94816601 102.66771744 24.04146573 105.74105302 27.1328125 108.81640625 C27.84312622 109.51842163 28.55343994 110.22043701 29.28527832 110.94372559 C29.93685913 111.59200317 30.58843994 112.24028076 31.25976562 112.90820312 C31.83440552 113.4776062 32.40904541 114.04700928 33.00109863 114.63366699 C35.93696128 117.81632998 35.46685745 120.65745729 35.44921875 124.85546875 C35.4478038 125.5185202 35.44638885 126.18157166 35.44493103 126.86471558 C35.43933004 128.98407488 35.4267775 131.10332884 35.4140625 133.22265625 C35.40904762 134.65885264 35.40448469 136.09505069 35.40039062 137.53125 C35.38936032 141.0534197 35.37209509 144.5755277 35.3515625 148.09765625 C28.87784507 148.17437088 22.40424693 148.226532 15.93017578 148.26245117 C13.73254007 148.27744165 11.53493379 148.29784091 9.33740234 148.32397461 C-14.40438982 148.59903853 -14.40438982 148.59903853 -23.6484375 145.09765625 C-24.32390625 144.84218018 -24.999375 144.5867041 -25.6953125 144.32348633 C-33.90670201 140.88496697 -41.07061063 136.06229587 -47.6484375 130.09765625 C-48.42960937 129.39769531 -49.21078125 128.69773437 -50.015625 127.9765625 C-55.67452527 122.63204558 -59.8612959 116.88413806 -63.6484375 110.09765625 C-64.11121094 109.26878906 -64.57398437 108.43992187 -65.05078125 107.5859375 C-73.52404847 90.76817612 -75.51930103 70.17932071 -70.09375 52.14453125 C-65.68348916 39.0860744 -58.50759914 28.5872841 -48.6484375 19.09765625 C-47.68357422 18.10378906 -47.68357422 18.10378906 -46.69921875 17.08984375 C-34.11850459 4.91848037 -17.05087869 -0.09024005 0 0 Z " fill="#FEFEFE" transform="translate(140.6484375,266.90234375)"/>
<path d="M0 0 C1.69445513 0.86422067 3.36746352 1.77384417 5 2.75 C6.11375 3.41 7.2275 4.07 8.375 4.75 C9.24125 5.41 10.1075 6.07 11 6.75 C12.4540625 7.801875 12.4540625 7.801875 13.9375 8.875 C23.30646726 16.91608213 28.28041584 28.66672453 29.23828125 40.7578125 C29.53230946 53.10699712 25.84361232 62.59738832 19 72.75 C18.4225 73.636875 17.845 74.52375 17.25 75.4375 C8.42698219 84.50560164 -2.77146299 89.79376998 -15.38769531 90.34204102 C-29.60610329 90.52143214 -40.65914498 86.81728743 -51 76.75 C-61.35452436 65.88889422 -64.60982607 53.04041091 -64.33984375 38.4453125 C-63.73424431 26.00665181 -57.06952589 16.40165951 -48.3125 8.0625 C-35.41145151 -2.78955843 -15.81738499 -6.51892226 0 0 Z " fill="#F1BC45" transform="translate(354,127.25)"/>
<path d="M0 0 C2.19516223 1.54978454 4.04212531 3.14517135 6 5 C6.59167969 4.51789063 7.18335938 4.03578125 7.79296875 3.5390625 C8.58316406 2.90742188 9.37335938 2.27578125 10.1875 1.625 C10.96480469 0.99851562 11.74210937 0.37203125 12.54296875 -0.2734375 C18.69954426 -4.59967975 24.67866637 -4.74670318 32 -4 C41.69543719 -1.40205136 46.77369422 3.10439861 51.765625 11.66015625 C53.63774582 15.20889161 54.20410941 18.09768642 54.3125 22.0625 C54.36857422 23.37927734 54.36857422 23.37927734 54.42578125 24.72265625 C53.09367851 34.97618099 47.70477477 41.12221392 40.45703125 48.09375 C39.0452851 49.48890511 37.63354035 50.88406165 36.22188091 52.2793045 C34.26174289 54.20888773 32.2877747 56.12402998 30.31402588 58.03967285 C27.31946265 60.95207153 24.34422377 63.88418594 21.36773968 66.81504059 C19.05563489 69.09146134 16.7393367 71.3631586 14.41426086 73.62634277 C13.58637558 74.43478638 12.7584903 75.24322998 11.90551758 76.07617188 C11.17367752 76.78769409 10.44183746 77.49921631 9.68782043 78.2322998 C7.92480795 79.90520171 7.92480795 79.90520171 7 82 C3.69142849 80.55374322 1.49219196 78.74978282 -1.0625 76.2121582 C-1.85011719 75.43407303 -2.63773438 74.65598785 -3.44921875 73.85432434 C-4.29097656 73.01165512 -5.13273437 72.1689859 -6 71.30078125 C-6.87269531 70.43237106 -7.74539062 69.56396088 -8.64453125 68.66923523 C-10.96157259 66.35940616 -13.27339708 64.04449032 -15.58398438 61.72821045 C-17.92307859 59.38962035 -20.2756235 57.06458156 -22.625 54.73632812 C-24.41747774 52.94612424 -26.20917038 51.15513383 -28 49.36328125 C-28.84175781 48.53073318 -29.68351563 47.69818512 -30.55078125 46.84040833 C-38.09925883 39.23223438 -42.06410114 33.18200239 -42.375 22.3125 C-42.2930266 14.41026458 -40.49374651 9.73494658 -35.1328125 4.00390625 C-24.8508333 -5.61794588 -12.30382602 -6.82818713 0 0 Z " fill="#FB7C82" transform="translate(170,302)"/>
<path d="M0 0 C-0.33 20.46 -0.66 40.92 -1 62 C-14 62 -14 62 -20 60 C-18.46095161 64.7270772 -16.47657005 66.60669255 -12.1875 68.8125 C-8.23170378 70.70760238 -5.53457833 71.24423694 -1 72 C-0.67 78.6 -0.34 85.2 0 92 C-12.4139888 92.82759925 -22.35598262 89.34755804 -31.78515625 81.15625 C-41.81884956 71.38799831 -47.18697712 59.56510321 -47.375 45.5625 C-47.43151849 31.86710443 -42.55117535 21.92709967 -33.1953125 12.10546875 C-23.37505602 2.75381372 -13.32984514 0 0 0 Z " fill="#F6CF47" transform="translate(337,125)"/>
<path d="M0 0 C7.23286605 3.82365931 11.5423429 10.40437246 14.11328125 18.1171875 C14.3515625 20.46484375 14.3515625 20.46484375 14.42578125 23.1796875 C14.48185547 24.49646484 14.48185547 24.49646484 14.5390625 25.83984375 C13.19137561 36.21332358 7.65327324 42.41994454 0.3515625 49.5 C-0.60563768 50.44852639 -1.56157482 51.39832889 -2.51631165 52.34933472 C-5.00969204 54.825636 -7.52097072 57.28297815 -10.03625488 59.73699951 C-12.09734361 61.75416394 -14.14507264 63.78460553 -16.19232464 65.81579781 C-20.41094075 70.00063227 -24.63958025 74.17547653 -28.8894043 78.32861328 C-29.63900925 79.06234161 -30.3886142 79.79606995 -31.16093445 80.55203247 C-32.88671875 82.1171875 -32.88671875 82.1171875 -33.88671875 82.1171875 C-34.09557792 72.32932789 -34.25532666 62.54200118 -34.3530283 52.75236416 C-34.39993042 48.20609578 -34.46350153 43.66135558 -34.56567383 39.1159668 C-34.66372613 34.72621304 -34.71732887 30.33792528 -34.74061394 25.94716072 C-34.75719843 24.27526838 -34.78958795 22.6034532 -34.83828926 20.93218803 C-35.20286093 7.89866149 -35.20286093 7.89866149 -31.99899292 3.56204224 C-22.43634332 -4.16067818 -11.07836813 -5.12396612 0 0 Z " fill="#F9455C" transform="translate(209.88671875,300.8828125)"/>
<path d="M0 0 C0.89525391 0.2165625 0.89525391 0.2165625 1.80859375 0.4375 C7.8178807 1.72329097 13.62465845 2.21792665 19.75 2.25 C20.45825928 2.25902344 21.16651855 2.26804688 21.89624023 2.27734375 C26.58687103 2.25101962 30.48393465 1.37445467 35 0 C36.32 0 37.64 0 39 0 C37.65223621 4.71717326 35.06812044 7.41975694 31 10 C24.43150741 12.70467342 16.93879643 13.36741065 10.17578125 11.01953125 C5.81312768 8.94965912 2.55412988 7.22413788 0 3 C0 2.01 0 1.02 0 0 Z " fill="#5B5E62" transform="translate(317,185)"/>
<path d="M0 0 C2.875 0.25 2.875 0.25 6 1 C8.89035676 5.27311879 8.51212836 10.04675856 8 15 C6.8125 18.125 6.8125 18.125 5 20 C2.5625 20.625 2.5625 20.625 0 20 C-2.70880011 17.80367559 -3.82535236 16.07611171 -4.38671875 12.6171875 C-4.57974027 8.1577247 -4.44912186 5.7017529 -2 1.875 C-1.34 1.25625 -0.68 0.6375 0 0 Z " fill="#5A5D64" transform="translate(318,150)"/>
<path d="M0 0 C3.17708641 0.81463754 3.77675779 1.83817047 5.4375 4.625 C6.18236828 9.52506489 5.9806503 14.16707025 4.25 18.8125 C2.4375 20.625 2.4375 20.625 -0.0625 21.1875 C-2.5625 20.625 -2.5625 20.625 -4.3125 18.8125 C-6.67357867 14.68061233 -6.96097629 11.32702019 -6.5625 6.625 C-3.76048489 0.91719144 -3.76048489 0.91719144 0 0 Z " fill="#393D40" transform="translate(352.5625,149.375)"/>
<path d="M0 0 C-1.43820813 5.03372844 -3.90245515 6.98955889 -8 10 C-10.88211302 10.96070434 -12.69850044 11.10581883 -15.6875 11.0625 C-16.89986328 11.04896484 -16.89986328 11.04896484 -18.13671875 11.03515625 C-19.05904297 11.01775391 -19.05904297 11.01775391 -20 11 C-20 8.36 -20 5.72 -20 3 C-18.64455078 2.80083984 -18.64455078 2.80083984 -17.26171875 2.59765625 C-16.08222656 2.42105469 -14.90273438 2.24445313 -13.6875 2.0625 C-11.92986328 1.80146484 -11.92986328 1.80146484 -10.13671875 1.53515625 C-1.13868613 0 -1.13868613 0 0 0 Z " fill="#393D40" transform="translate(356,185)"/>
</svg>
