<?xml version="1.0" encoding="UTF-8"?>
<svg xmlns="http://www.w3.org/2000/svg" xmlns:xlink="http://www.w3.org/1999/xlink" width="20pt" height="20pt" viewBox="0 0 20 20" version="1.1">
<g id="surface1">
<path style=" stroke:none;fill-rule:nonzero;fill:rgb(2.352941%,80%,67.058824%);fill-opacity:1;" d="M 20 10 C 20 15.523438 15.523438 20 10 20 C 4.476562 20 0 15.523438 0 10 C 0 4.476562 4.476562 0 10 0 C 15.523438 0 20 4.476562 20 10 Z M 20 10 "/>
<path style=" stroke:none;fill-rule:nonzero;fill:rgb(6.666667%,65.882353%,57.254902%);fill-opacity:1;" d="M 20 10 C 20 9.316406 19.929688 8.648438 19.800781 8.003906 L 15.15625 3.359375 L 14.363281 4.714844 L 12.460938 2.8125 L 4.84375 16.640625 L 8.003906 19.800781 C 8.648438 19.929688 9.316406 20 10 20 C 15.523438 20 20 15.523438 20 10 Z M 20 10 "/>
<path style=" stroke:none;fill-rule:nonzero;fill:rgb(100%,80.784314%,0%);fill-opacity:1;" d="M 4.84375 3.359375 L 15.15625 3.359375 L 15.15625 16.640625 L 4.84375 16.640625 Z M 4.84375 3.359375 "/>
<path style=" stroke:none;fill-rule:nonzero;fill:rgb(100%,71.372549%,0%);fill-opacity:1;" d="M 9.984375 3.359375 L 15.15625 3.359375 L 15.15625 16.640625 L 9.984375 16.640625 Z M 9.984375 3.359375 "/>
<path style=" stroke:none;fill-rule:nonzero;fill:rgb(100%,100%,100%);fill-opacity:1;" d="M 5.621094 3.359375 L 14.378906 3.359375 L 14.378906 15.640625 L 5.621094 15.640625 Z M 5.621094 3.359375 "/>
<path style=" stroke:none;fill-rule:nonzero;fill:rgb(86.27451%,88.235294%,92.156863%);fill-opacity:1;" d="M 9.984375 3.359375 L 14.378906 3.359375 L 14.378906 15.640625 L 9.984375 15.640625 Z M 9.984375 3.359375 "/>
<path style=" stroke:none;fill-rule:nonzero;fill:rgb(100%,43.921569%,27.058824%);fill-opacity:1;" d="M 7.539062 2.8125 L 12.460938 2.8125 L 12.460938 4.609375 L 7.539062 4.609375 Z M 7.539062 2.8125 "/>
<path style=" stroke:none;fill-rule:nonzero;fill:rgb(87.058824%,27.843137%,14.901961%);fill-opacity:1;" d="M 9.984375 2.8125 L 12.460938 2.8125 L 12.460938 4.609375 L 9.984375 4.609375 Z M 9.984375 2.8125 "/>
<path style=" stroke:none;fill-rule:nonzero;fill:rgb(2.352941%,80%,67.058824%);fill-opacity:1;" d="M 7.171875 8.089844 L 6.21875 7.136719 L 6.824219 6.527344 L 7.171875 6.871094 L 8.253906 5.789062 L 8.859375 6.398438 Z M 7.171875 8.089844 "/>
<path style=" stroke:none;fill-rule:nonzero;fill:rgb(2.352941%,80%,67.058824%);fill-opacity:1;" d="M 7.171875 11.066406 L 6.21875 10.113281 L 6.824219 9.503906 L 7.171875 9.851562 L 8.253906 8.769531 L 8.859375 9.375 Z M 7.171875 11.066406 "/>
<path style=" stroke:none;fill-rule:nonzero;fill:rgb(2.352941%,80%,67.058824%);fill-opacity:1;" d="M 7.171875 14.046875 L 6.21875 13.09375 L 6.824219 12.484375 L 7.171875 12.828125 L 8.253906 11.746094 L 8.859375 12.355469 Z M 7.171875 14.046875 "/>
<path style=" stroke:none;fill-rule:nonzero;fill:rgb(49.411765%,52.156863%,58.823529%);fill-opacity:1;" d="M 9.335938 6.796875 L 13.125 6.796875 L 13.125 7.65625 L 9.335938 7.65625 Z M 9.335938 6.796875 "/>
<path style=" stroke:none;fill-rule:nonzero;fill:rgb(49.411765%,52.156863%,58.823529%);fill-opacity:1;" d="M 9.335938 9.804688 L 13.125 9.804688 L 13.125 10.664062 L 9.335938 10.664062 Z M 9.335938 9.804688 "/>
<path style=" stroke:none;fill-rule:nonzero;fill:rgb(49.411765%,52.156863%,58.823529%);fill-opacity:1;" d="M 9.335938 12.664062 L 13.125 12.664062 L 13.125 13.523438 L 9.335938 13.523438 Z M 9.335938 12.664062 "/>
</g>
</svg>
