<?xml version="1.0" encoding="UTF-8"?>
<svg width="20pt" height="20pt" id="Capa_1" enable-background="new 0 0 512 512" viewBox="0 0 512 512" xmlns="http://www.w3.org/2000/svg"><g><g><g><g><g><g><g><circle cx="256" cy="256" fill="#f1cc30" r="256"/></g></g></g></g></g></g><path d="m512 256c0-15.514-1.38-30.705-4.024-45.458l-116.76-116.76-29.784 36.768-44.514-44.513-196.133 347.963 69.482 69.482c20.976 5.557 43.009 8.518 65.733 8.518 141.385 0 256-114.615 256-256z" fill="#e9a226"/><g><path d="m120.784 93.782h270.431v340.219h-270.431z" fill="#e06a24"/></g><g><path d="m255.923 93.782h135.292v340.219h-135.292z" fill="#d24611"/></g><g><path d="m152.39 120.236h207.221v283.762h-207.221z" fill="#fff"/></g><g><path d="m255.923 120.235h103.687v283.762h-103.687z" fill="#e9ecf4"/></g><g><circle cx="256" cy="261" fill="#78d464" r="78.712"/></g><g><path d="m256 182.288c-.026 0-.051.002-.077.002v157.42c.026 0 .051.002.077.002 43.471 0 78.712-35.24 78.712-78.712s-35.241-78.712-78.712-78.712z" fill="#6cbd5a"/></g><g><path d="m239.562 305.853-35.88-35.88 21.213-21.213 14.667 14.666 47.543-47.542 21.213 21.213z" fill="#fff"/></g><g><path d="m287.105 215.884-31.182 31.181v42.427l52.395-52.395z" fill="#e9ecf4"/></g><g><path d="m326.763 143.628h-141.526v-33.698c0-18.739 15.191-33.93 33.93-33.93h73.666c18.739 0 33.93 15.191 33.93 33.93z" fill="#7f8494"/></g><g><path d="m326.763 109.93c0-18.739-15.191-33.93-33.93-33.93h-36.91v67.627h70.84z" fill="#656977"/></g></g></svg>
