<?xml version="1.0" encoding="UTF-8"?>
<svg xmlns="http://www.w3.org/2000/svg" xmlns:xlink="http://www.w3.org/1999/xlink" width="20pt" height="20pt" viewBox="0 0 512 512" version="1.1">
<g><g fill="#85d9ff"><path d="m410.741 202.995h30v106.011h-30z"/><path d="m325.871 55.995h30v106.01h-30z" transform="matrix(.5 -.866 .866 .5 76.038 349.702)"/><path d="m287.865 388h106.01v30h-106.01z" transform="matrix(.866 -.5 .5 .866 -155.833 224.43)"/></g><path d="m156.13 349.995h30v106.01h-30z" fill="#bfebff" transform="matrix(.5 -.866 .866 .5 -263.443 349.702)"/><path d="m71.259 202.995h30v106.011h-30z" fill="#bfebff"/><path d="m118.124 94h106.01v30h-106.01z" fill="#bfebff" transform="matrix(.866 -.5 .5 .866 -31.573 100.169)"/><path d="m256 0-36.316 60 36.316 60c33.084 0 60-26.916 60-60s-26.916-60-60-60z" fill="#344aa3"/><path d="m196 60c0 33.084 26.916 60 60 60v-120c-33.084 0-60 26.916-60 60z" fill="#1365c2"/><path d="m86.24 97.981-36.316 60 36.316 60c33.084 0 60-26.916 60-60s-26.916-60-60-60z" fill="#1365c2"/><path d="m26.24 157.981c0 33.084 26.916 60 60 60v-120c-33.084 0-60 26.916-60 60z" fill="#0d86d9"/><path d="m86.24 294.019-36.316 60 36.316 60c33.084 0 60-26.916 60-60s-26.916-60-60-60z" fill="#1365c2"/><path d="m26.24 354.019c0 33.084 26.916 60 60 60v-120c-33.084 0-60 26.916-60 60z" fill="#0d86d9"/><path d="m256 392-36.316 60 36.316 60c33.084 0 60-26.916 60-60s-26.916-60-60-60z" fill="#344aa3"/><path d="m196 452c0 33.084 26.916 60 60 60v-120c-33.084 0-60 26.916-60 60z" fill="#1365c2"/><path d="m425.76 294.019-36.316 60 36.316 60c33.084 0 60-26.916 60-60s-26.916-60-60-60z" fill="#344aa3"/><path d="m365.76 354.019c0 33.084 26.916 60 60 60v-120c-33.084 0-60 26.916-60 60z" fill="#1365c2"/><path d="m425.76 97.974-36.316 60 36.316 60c33.084 0 60-26.916 60-60s-26.916-60-60-60z" fill="#344aa3"/><path d="m365.76 157.974c0 33.084 26.916 60 60 60v-120c-33.084 0-60 26.916-60 60z" fill="#1365c2"/><path d="m256 150.18-45 105.82 45 105.82 91.644-52.91v-105.82z" fill="#85d9ff"/><path d="m164.356 203.09v105.82l91.644 52.91v-211.64z" fill="#bfebff"/></g></svg>
