<svg id="Capa_1" enable-background="new 0 0 512 512" height="20pt" viewBox="0 0 512 512" width="20pt" xmlns="http://www.w3.org/2000/svg"><g><circle cx="256" cy="256" fill="#ff6c52" r="256"/><path d="m371.421 159.168-58.972-58.972-122.886 122.887-44.033-44.033-38.633 38.633 129.279 129.279-80.176 80.177 84.372 84.372c5.171.312 10.378.489 15.628.489 141.385 0 256-114.615 256-256 0-8.166-.399-16.238-1.147-24.209l-106.028-106.027z" fill="#ff432e"/><path d="m186.97 116.442c-9.886-6.073-21.517-9.58-33.97-9.58-35.898 0-65 29.101-65 65s29.102 65 65 65c1.007 0 2.005-.036 3-.081v150.357l100 5.529 13.706-154.529-13.706-161.276c-29.433 0-55.137 15.906-69.03 39.58z" fill="#fff"/><path d="m325.03 116.442c9.886-6.073 21.517-9.58 33.97-9.58 35.898 0 65 29.101 65 65s-29.102 65-65 65c-1.007 0-2.005-.036-3-.081v150.357l-100 5.529v-315.805c29.433 0 55.137 15.906 69.03 39.58z" fill="#e9edf5"/><path d="m213.5 234.764h25v80h-25z" fill="#e9edf5"/><path d="m273.5 234.764h25v80h-25z" fill="#cdd2e1" transform="matrix(-1 0 0 -1 572 549.529)"/><path d="m256 427.138h-100v-40h100l9.941 20z" fill="#e9edf5"/><path d="m256 387.138h100v40h-100z" fill="#cdd2e1" transform="matrix(-1 0 0 -1 612 814.276)"/></g></svg>
