<svg id="Layer_1" enable-background="new 0 0 512 512" height="20pt" viewBox="0 0 512 512" width="20pt" xmlns="http://www.w3.org/2000/svg"><g><g><g><g><g><g><g><g id="XMLID_474_"><g id="XMLID_475_"><g id="XMLID_476_"><g id="XMLID_477_"><g id="XMLID_498_"><g id="XMLID_499_"><g id="XMLID_500_"><g id="XMLID_501_"><g id="XMLID_502_"><g id="XMLID_503_"><g id="XMLID_504_"><g id="XMLID_505_"><g id="XMLID_506_"><g id="XMLID_507_"><g id="XMLID_566_"><circle cx="256" cy="256" fill="#50deff" r="256"/></g></g></g></g></g></g></g></g></g></g></g></g></g></g></g></g></g></g></g></g></g><path d="m512 256c0-18.548-1.973-36.636-5.72-54.064l-145.48-145.48-70.279 102.88-102.88-102.88-56.088 275.638 3.486 3.486-47.229 82.648 77.086 77.086c28.304 10.782 59.014 16.686 91.104 16.686 141.385 0 256-114.615 256-256z" fill="#22abff"/><path d="m87.809 139.818h336.381v278.41h-336.381z" fill="#fff"/><path d="m256 139.82h168.19v278.41h-168.19z" fill="#fff3c0"/><path d="m87.809 101.206h336.381v77.223h-336.381z" fill="#39b760"/><path d="m256 101.21h168.19v77.22h-168.19z" fill="#199361"/><path d="m170.118 134.993c-12.362 0-22.384-10.022-22.384-22.384v-42.234c0-12.362 10.022-22.384 22.384-22.384 12.362 0 22.384 10.022 22.384 22.384v42.234c0 12.362-10.022 22.384-22.384 22.384z" fill="#fff"/><path d="m343.277 134.993c-12.362 0-22.384-10.022-22.384-22.384v-42.234c0-12.362 10.022-22.384 22.384-22.384 12.362 0 22.384 10.022 22.384 22.384v42.234c0 12.362-10.022 22.384-22.384 22.384z" fill="#fff3c0"/><g><path d="m275.886 229.109v25h24.337v113.86h25v-138.86z" fill="#383838"/><path d="m214.089 227.219c-19.982 0-37.277 14.215-41.124 33.801l-2.409 12.266 24.531 4.818 2.409-12.266c1.55-7.892 8.528-13.619 16.592-13.619 9.325 0 16.911 7.586 16.911 16.91 0 9.325-7.586 16.911-16.911 16.911h-12.5v25h12.5c9.325 0 16.911 7.586 16.911 16.91s-7.586 16.91-16.911 16.91c-8.391 0-15.59-6.249-16.747-14.536-.108-.779-.164-1.578-.164-2.375v-12.5h-25v12.5c0 1.949.136 3.91.404 5.83 2.871 20.569 20.715 36.08 41.506 36.08 23.109 0 41.911-18.801 41.911-41.91 0-11.448-4.615-21.839-12.081-29.41 7.466-7.572 12.081-17.962 12.081-29.41.002-23.11-18.799-41.91-41.909-41.91z" fill="#4f4f4f"/></g></g></svg>
