<svg height="20pt" viewBox="0 0 512 512" width="20pt" xmlns="http://www.w3.org/2000/svg"><path d="m512 256c0 141.386719-114.613281 256-256 256s-256-114.613281-256-256 114.613281-256 256-256 256 114.613281 256 256zm0 0" fill="#9cdd05"/><path d="m240.867188 129.496094-3.867188-3.496094-174.78125 38.550781 110.453125 110.453125-7.359375 7.359375 203.488281 203.492188c84.816407-41.707031 143.199219-128.957031 143.199219-229.855469 0-8.132812-.398438-16.175781-1.140625-24.113281l-67.40625-67.40625zm0 0" fill="#79ab03"/><path d="m443.332031 407.066406-22.371093-67.117187-10.609376 3.542969-10.609374-3.542969-22.371094 67.117187 21.214844 7.082032 11.765624-35.296876 11.765626 35.296876zm0 0" fill="#ff9f00"/><path d="m399.164062 171.671875h22.371094v127.074219h-22.371094zm0 0" fill="#ff9f00"/><path d="m421.539062 289.574219c-3.578124-1.34375-7.160156-2.015625-11.1875-2.015625-4.027343 0-7.605468.671875-11.1875 2.015625-12.972656 4.472656-22.371093 17-22.371093 31.542969 0 18.570312 14.988281 33.558593 33.558593 33.558593 18.570313 0 33.558594-14.988281 33.558594-33.558593 0-14.542969-9.394531-27.070313-22.371094-31.542969zm0 0" fill="#fdbf00"/><path d="m152.324219 181.960938v72.039062c0 31.992188 43.179687 55.933594 100.675781 55.933594s100.675781-23.941406 100.675781-55.933594v-72.039062zm0 0" fill="#53433f"/><path d="m353.675781 181.960938v72.039062c0 31.992188-43.179687 55.933594-100.675781 55.933594v-127.972656zm0 0" fill="#3e322e"/><path d="m253 88-190.910156 76.511719 190.910156 76.511719 146.164062-58.390626 22.371094-8.949218 22.375-9.171875zm0 0" fill="#68544f"/><path d="m443.910156 164.511719-22.371094 9.171875-22.375 8.949218-146.164062 58.390626v-153.023438zm0 0" fill="#53433f"/></svg>
