<?xml version="1.0" encoding="UTF-8"?>
<svg width="20pt" height="20pt" id="Capa_1" enable-background="new 0 0 512 512" viewBox="0 0 512 512" xmlns="http://www.w3.org/2000/svg">
<circle style="fill:#FFE670;" cx="256" cy="256" r="256"/>
<path style="fill:#FEC000;" d="M511.517,271.544l-77.689-77.689L256,58.958L78.173,193.855l24.469,32.257l25.948,26.513v118.553
	H95.334v37.489l94.749,94.749C211.117,509.005,233.207,512,256,512C392.164,512,503.479,405.689,511.517,271.544z"/>
<polygon style="fill:#FFFFFF;" points="383.411,374.829 128.589,374.829 128.589,203.114 256,106.463 383.411,203.114 "/>
<polygon style="fill:#9CFDFF;" points="383.41,203.11 383.41,374.83 256,374.83 256,106.46 "/>
<rect x="216.89" y="256.12" style="fill:#0088FF;" width="78.23" height="118.7"/>
<rect x="256" y="256.12" style="fill:#004EB1;" width="39.11" height="118.71"/>
<rect x="95.33" y="371.18" style="fill:#00E8F2;" width="321.33" height="37.489"/>
<rect x="256" y="371.18" style="fill:#00B7BE;" width="160.67" height="37.49"/>
<polygon style="fill:#E02424;" points="409.358,226.112 256,109.777 102.642,226.112 78.173,193.855 256,58.958 433.827,193.855 "/>
<polygon style="fill:#990011;" points="433.83,193.86 409.36,226.11 383.41,206.43 256,109.78 256,58.96 "/>
<g>
</g>
<g>
</g>
<g>
</g>
<g>
</g>
<g>
</g>
<g>
</g>
<g>
</g>
<g>
</g>
<g>
</g>
<g>
</g>
<g>
</g>
<g>
</g>
<g>
</g>
<g>
</g>
<g>
</g>
</svg>
