<?xml version="1.0" encoding="iso-8859-1"?>
<!-- Generator: Adobe Illustrator 19.0.0, SVG Export Plug-In . SVG Version: 6.00 Build 0)  -->
<svg width="20pt" height="20pt" version="1.1" id="Capa_1" xmlns="http://www.w3.org/2000/svg" xmlns:xlink="http://www.w3.org/1999/xlink" x="0px" y="0px" viewBox="0 0 512 512" style="enable-background:new 0 0 512 512;" xml:space="preserve">
<circle style="fill:#01579A;" cx="256" cy="256" r="256"/>
<g>
	<path style="fill:#004370;" d="M354.932,137.609L509.45,292.128C511.118,280.323,512,268.266,512,256
		c0-2.603-0.051-5.193-0.128-7.776L378.095,114.446L354.932,137.609z"/>
	<path style="fill:#004370;" d="M285.721,510.273c112.261-12.982,202.398-98.569,222.213-208.605L266,59.733L246,92.49
		l89.677,89.677l-30.962,74.809L171.209,123.47l-14.143,14.143l139.369,139.369l-30.962,74.808L126.087,212.403l-32.757,20
		l156.7,156.7l-3.236,7.818l-75.585-75.585L148.046,344.5l85.187,85.187l-8.225,19.873L285.721,510.273z"/>
</g>
<path style="fill:#FEE900;" d="M367.673,217.178c0-62.204-50.859-112.53-113.263-111.662
	c-59.495,0.828-108.326,48.897-110.036,108.373c-0.726,25.268,6.946,48.712,20.43,67.749c19.455,27.468,33.111,58.61,38.928,91.764
	l7.599,43.312h89.338l8.039-45.82c5.627-32.072,18.982-62.144,38.001-88.575C359.902,263.986,367.673,241.491,367.673,217.178z"/>
<path style="fill:#FED500;" d="M255.571,105.515v311.199h45.098l8.039-45.82c5.627-32.072,18.982-62.144,38.001-88.575
	c13.193-18.334,20.964-40.829,20.964-65.142C367.673,155.361,317.442,105.284,255.571,105.515z"/>
<polygon style="fill:#FE9000;" points="286.401,408.977 266.546,406.584 287.53,232.403 224.47,232.403 245.454,406.584 
	225.599,408.977 201.915,212.403 310.085,212.403 "/>
<polygon style="fill:#FA8B00;" points="255.571,212.403 255.571,232.403 287.53,232.403 266.546,406.584 286.401,408.977 
	310.085,212.403 "/>
<path style="fill:#FFFFFF;" d="M255.997,460.267L255.997,460.267c-27.756,0-50.256-22.5-50.256-50.256v-25.123h100.512v25.123
	C306.253,437.766,283.752,460.267,255.997,460.267z"/>
<path style="fill:#E6E6E6;" d="M255.571,384.888v75.368c0.143,0.001,0.283,0.011,0.425,0.011l0,0
	c27.756,0,50.256-22.5,50.256-50.256v-25.123L255.571,384.888L255.571,384.888z"/>
<rect x="385.91" y="212.4" style="fill:#FEF49C;" width="32.757" height="20"/>
<g>
	<rect x="93.33" y="212.4" style="fill:#FEF8C3;" width="32.757" height="20"/>
	<rect x="246" y="59.733" style="fill:#FEF8C3;" width="20" height="32.757"/>
</g>
<g>
	<rect x="255.57" y="59.733" style="fill:#FEF49C;" width="10.429" height="32.757"/>
	
		<rect x="343.062" y="315.838" transform="matrix(-0.7071 -0.7071 0.7071 -0.7071 383.2016 810.403)" style="fill:#FEF49C;" width="32.758" height="20"/>
</g>
<rect x="136.179" y="108.961" transform="matrix(-0.7071 -0.7071 0.7071 -0.7071 176.3144 310.9539)" style="fill:#FEF8C3;" width="32.758" height="20"/>
<rect x="349.434" y="102.577" transform="matrix(-0.7071 -0.7071 0.7071 -0.7071 529.4778 457.2288)" style="fill:#FEF49C;" width="20" height="32.758"/>
<rect x="142.547" y="309.465" transform="matrix(-0.7071 -0.7071 0.7071 -0.7071 30.0081 664.1177)" style="fill:#FEF8C3;" width="20" height="32.758"/>
<g>
</g>
<g>
</g>
<g>
</g>
<g>
</g>
<g>
</g>
<g>
</g>
<g>
</g>
<g>
</g>
<g>
</g>
<g>
</g>
<g>
</g>
<g>
</g>
<g>
</g>
<g>
</g>
<g>
</g>
</svg>
