<?xml version="1.0" encoding="iso-8859-1"?>
<!-- Generator: Adobe Illustrator 19.0.0, SVG Export Plug-In . SVG Version: 6.00 Build 0)  -->
<svg  version="1.1" id="Layer_1" xmlns="http://www.w3.org/2000/svg" xmlns:xlink="http://www.w3.org/1999/xlink" x="0px" y="0px"
	 viewBox="0 0 297 297" style="enable-background:new 0 0 297 297;" xml:space="preserve" width="20pt" height="20pt">
<g>
	<g>
		<g>
			<g>
				<g>
					<g>
						<circle style="fill:#5E4534;" cx="148.5" cy="148.5" r="148.5"/>
					</g>
				</g>
			</g>
		</g>
	</g>
	<path style="fill:#51392A;" d="M247.5,99L72.192,237.947l57.94,57.922C136.151,296.612,142.28,297,148.5,297
		c82.014,0,148.5-66.486,148.5-148.5L247.5,99z"/>
	<g>
		<path style="fill:#D95459;" d="M163.75,56.811v-26.11c0-4.977-4.034-9.011-9.011-9.011h-12.478c-4.977,0-9.011,4.034-9.011,9.011
			v26.11H118l30.5,30.5l30.5-30.5L163.75,56.811z"/>
	</g>
	<g>
		<path style="fill:#C14952;" d="M179,56.811h-15.25v-26.11c0-4.977-4.034-9.011-9.011-9.011h-7.072v64.788l0.833,0.833L179,56.811z
			"/>
	</g>
	<g>
		<path style="fill:#FFCF6D;" d="M78.416,240.557h140.167c4.821,0,8.729-3.908,8.729-8.729V109.966c0-4.821-3.908-8.729-8.729-8.729
			H78.416c-4.821,0-8.729,3.908-8.729,8.729v121.862C69.688,236.649,73.596,240.557,78.416,240.557z"/>
	</g>
	<g>
		<path style="fill:#F9B65F;" d="M218.584,101.237h-70.917v139.32h70.917c4.821,0,8.729-3.908,8.729-8.729V109.966
			C227.313,105.145,223.404,101.237,218.584,101.237z"/>
	</g>
	<g>
		<polygon style="fill:#E8A24D;" points="227.312,130.6 69.688,130.6 49.5,99 247.5,99 		"/>
	</g>
	<g>
		<polygon style="fill:#D1893B;" points="247.5,99 147.667,99 147.667,130.6 227.313,130.6 		"/>
	</g>
</g>
<g>
</g>
<g>
</g>
<g>
</g>
<g>
</g>
<g>
</g>
<g>
</g>
<g>
</g>
<g>
</g>
<g>
</g>
<g>
</g>
<g>
</g>
<g>
</g>
<g>
</g>
<g>
</g>
<g>
</g>
</svg>
