<svg width="20pt" height="20pt" viewBox="0 0 512 512" version="1.1" xmlns="http://www.w3.org/2000/svg">
<path d="M0 0 C1.01790619 0.00215515 2.03581238 0.0043103 3.08456421 0.00653076 C17.69363523 0.05620146 32.02575853 0.30709809 46.375 3.3125 C47.34985352 3.51117676 48.32470703 3.70985352 49.32910156 3.91455078 C97.7109774 14.03517194 141.69928269 35.9516877 177.375 70.3125 C178.3640332 71.26068604 178.3640332 71.26068604 179.37304688 72.22802734 C188.86130305 81.37247479 197.6012044 90.66984009 205.375 101.3125 C206.23306152 102.46355017 207.09113451 103.61459177 207.94921875 104.765625 C213.98736829 112.95680614 219.34595521 121.47054105 224.375 130.3125 C224.73948242 130.94430176 225.10396484 131.57610352 225.47949219 132.22705078 C247.08534998 169.97532572 256.85198095 212.74189997 256.6875 255.9375 C256.68534485 256.95540619 256.6831897 257.97331238 256.68096924 259.02206421 C256.63129854 273.63113523 256.38040191 287.96325853 253.375 302.3125 C253.07698486 303.77478027 253.07698486 303.77478027 252.77294922 305.26660156 C242.65232806 353.6484774 220.7358123 397.63678269 186.375 433.3125 C185.74287598 433.97185547 185.11075195 434.63121094 184.45947266 435.31054688 C175.31502521 444.79880305 166.01765991 453.5387044 155.375 461.3125 C154.22394983 462.17056152 153.07290823 463.02863451 151.921875 463.88671875 C143.73224019 469.92427396 135.22961724 475.30707302 126.375 480.3125 C125.66778809 480.7146875 124.96057617 481.116875 124.23193359 481.53125 C101.09654164 494.5566741 75.92537591 503.30551461 49.9375 508.625 C49.21860596 508.77235596 48.49971191 508.91971191 47.7590332 509.0715332 C33.08339502 511.86090125 18.55831162 512.66142619 3.64770508 512.62817383 C0.70811513 512.6250221 -2.2304558 512.64854926 -5.16992188 512.67382812 C-18.54306192 512.71848737 -31.43916711 511.51301542 -44.625 509.3125 C-46.33055054 509.03031616 -46.33055054 509.03031616 -48.07055664 508.74243164 C-91.33802759 500.97044532 -132.38793216 480.98345309 -165.625 452.3125 C-166.37007813 451.67828125 -167.11515625 451.0440625 -167.8828125 450.390625 C-181.38779833 438.57948485 -194.05918743 425.82889772 -204.625 411.3125 C-205.48149066 410.16255169 -206.33826433 409.01281411 -207.1953125 407.86328125 C-213.23534209 399.67315742 -218.61867614 391.16870382 -223.625 382.3125 C-224.0271875 381.60528809 -224.429375 380.89807617 -224.84375 380.16943359 C-237.8691741 357.03404164 -246.61801461 331.86287591 -251.9375 305.875 C-252.08485596 305.15610596 -252.23221191 304.43721191 -252.3840332 303.6965332 C-255.35789088 288.05024391 -255.99800362 272.57681954 -255.9375 256.6875 C-255.93534485 255.66959381 -255.9331897 254.65168762 -255.93096924 253.60293579 C-255.88129854 238.99386477 -255.63040191 224.66174147 -252.625 210.3125 C-252.42632324 209.33764648 -252.22764648 208.36279297 -252.02294922 207.35839844 C-241.90232806 158.9765226 -219.9858123 114.98821731 -185.625 79.3125 C-184.99287598 78.65314453 -184.36075195 77.99378906 -183.70947266 77.31445312 C-174.56502521 67.82619695 -165.26765991 59.0862956 -154.625 51.3125 C-153.47394983 50.45443848 -152.32290823 49.59636549 -151.171875 48.73828125 C-142.98224019 42.70072604 -134.47961724 37.31792698 -125.625 32.3125 C-124.91778809 31.9103125 -124.21057617 31.508125 -123.48193359 31.09375 C-100.34654164 18.0683259 -75.17537591 9.31948539 -49.1875 4 C-48.46860596 3.85264404 -47.74971191 3.70528809 -47.0090332 3.5534668 C-31.36274391 0.57960912 -15.88931954 -0.06050362 0 0 Z " fill="#ACD2FA" transform="translate(255.625,-0.3125)"/>
<path d="M0 0 C5.80686848 4.82269634 11.14337878 10.00755402 16.46777344 15.35424805 C17.39056595 16.27689453 18.31335846 17.19954102 19.26411438 18.15014648 C21.77639498 20.66214199 24.28559536 23.17719348 26.79422665 25.69283271 C29.42686816 28.33176116 32.06237608 30.96782386 34.6975708 33.60420227 C39.68234301 38.59207415 44.66456299 43.58248721 49.64585423 48.57383519 C55.30811289 54.24727782 60.97321548 59.91787703 66.63856077 65.58823717 C77.81754646 76.77723341 88.99330826 87.96944312 100.16675949 99.16396618 C101.32997563 100.32895471 102.50432371 101.48301629 103.69327164 102.62173176 C105.37401932 104.39449588 105.81022229 105.91597094 106.46484375 108.26171875 C106.70565674 109.12192627 106.94646973 109.98213379 107.19458008 110.8684082 C107.56232544 112.26385864 107.56232544 112.26385864 107.9375 113.6875 C108.19619873 114.65196045 108.45489746 115.6164209 108.72143555 116.61010742 C113.14266566 133.69244482 116.11543989 151.46466332 116.203125 169.1328125 C116.21018463 170.07916061 116.21724426 171.02550873 116.22451782 172.00053406 C116.45241099 211.51652112 116.45241099 211.51652112 113 228 C112.70198486 229.46228027 112.70198486 229.46228027 112.39794922 230.95410156 C102.27732806 279.3359774 80.3608123 323.32428269 46 359 C45.36787598 359.65935547 44.73575195 360.31871094 44.08447266 360.99804688 C34.94002521 370.48630305 25.64265991 379.2262044 15 387 C13.84894983 387.85806152 12.69790823 388.71613451 11.546875 389.57421875 C3.35724019 395.61177396 -5.14538276 400.99457302 -14 406 C-14.70721191 406.4021875 -15.41442383 406.804375 -16.14306641 407.21875 C-39.27845836 420.2441741 -64.44962409 428.99301461 -90.4375 434.3125 C-91.15639404 434.45985596 -91.87528809 434.60721191 -92.6159668 434.7590332 C-107.29160498 437.54840125 -121.81668838 438.34892619 -136.72729492 438.31567383 C-139.66688487 438.3125221 -142.6054558 438.33604926 -145.54492188 438.36132812 C-163.17444482 438.4207602 -180.35637919 436.36234428 -197.5625 432.5 C-198.51833984 432.30019531 -199.47417969 432.10039062 -200.45898438 431.89453125 C-201.38130859 431.69214844 -202.30363281 431.48976563 -203.25390625 431.28125 C-204.05127197 431.10658203 -204.8486377 430.93191406 -205.67016602 430.75195312 C-210.32290012 429.25028478 -213.71494296 426.53502779 -217.13191223 423.11532593 C-218.3159967 421.93753319 -218.3159967 421.93753319 -219.52400208 420.73594666 C-220.37564438 419.87868484 -221.22728668 419.02142303 -222.10473633 418.13818359 C-223.01254852 417.23226974 -223.92036072 416.3263559 -224.85568237 415.39299011 C-227.33717229 412.91633327 -229.8123907 410.4334954 -232.28637528 407.94934416 C-234.87623778 405.35068373 -237.47138548 402.75731119 -240.06584167 400.16323853 C-244.41767407 395.81047079 -248.76562185 391.45385339 -253.11108398 387.09472656 C-258.14120483 382.04884704 -263.17656684 377.00824686 -268.21493894 371.97060716 C-273.0596539 367.12650142 -277.90151125 362.27955055 -282.74176598 357.43098831 C-284.8035929 355.36562334 -286.86627368 353.30111663 -288.92960548 351.2372551 C-291.80349803 348.36217625 -294.67311471 345.48286723 -297.54223633 342.60302734 C-298.40399979 341.74171707 -299.26576324 340.8804068 -300.15364075 339.99299622 C-300.92893127 339.2134407 -301.7042218 338.43388519 -302.50300598 337.63070679 C-303.18232587 336.94971106 -303.86164576 336.26871532 -304.56155109 335.56708336 C-306 334 -306 334 -306 333 C-196.11 333 -86.22 333 27 333 C27 276.57 27 220.14 27 162 C25.68 161.34 24.36 160.68 23 160 C20.73768987 158.30115441 18.51782693 156.58202943 16.3125 154.8125 C15.14215917 153.88121868 13.97158217 152.95023408 12.80078125 152.01953125 C12.23351035 151.55051675 11.66623945 151.08150225 11.08177853 150.59827518 C9.02578102 148.94939219 9.02578102 148.94939219 6.6960001 147.660079 C2.91784642 145.29334675 0.4208036 143.49802104 -0.81532478 139.09752083 C-1.10962407 135.42638811 -1.1131899 131.85219112 -1.02172852 128.17016602 C-1.01918702 126.77013819 -1.02062039 125.37009839 -1.02571106 123.97007751 C-1.02828538 120.18442731 -0.97551525 116.40136237 -0.91254544 112.61631131 C-0.85614318 108.65530721 -0.85098606 104.6942386 -0.84031677 100.7328949 C-0.81238385 93.23853984 -0.73858618 85.74537152 -0.64817137 78.25153822 C-0.54744649 69.71724449 -0.49805886 61.18289297 -0.45291245 52.64815247 C-0.35893086 35.09808275 -0.2007097 17.549167 0 0 Z " fill="#77AFF6" transform="translate(396,74)"/>
<path d="M0 0 C0 12.87 0 25.74 0 39 C1.98 39.66 3.96 40.32 6 41 C8.13121486 41.9923072 10.24371395 43.02542362 12.33984375 44.08984375 C12.93398575 44.38969681 13.52812775 44.68954987 14.14027405 44.99848938 C15.41230487 45.64069022 16.68347819 46.28459192 17.95385742 46.93005371 C21.34861971 48.65417513 24.7503666 50.36438805 28.15234375 52.07421875 C28.832435 52.41623322 29.51252625 52.75824768 30.21322632 53.11062622 C35.77314066 55.90038486 41.37428327 58.59544558 47 61.25 C58.25850057 66.57420181 69.37717521 72.17094972 80.50646973 77.75836182 C91.10564792 83.07769158 101.71912194 88.34730051 112.45092773 93.39550781 C116.73843359 95.41629328 120.98011284 97.48923624 125.17578125 99.6953125 C126.00174805 100.12569824 126.82771484 100.55608398 127.67871094 100.99951172 C129.20892889 101.80223359 130.73245445 102.6179209 132.24707031 103.44970703 C132.91963867 103.80145996 133.59220703 104.15321289 134.28515625 104.515625 C134.86144775 104.82790039 135.43773926 105.14017578 136.03149414 105.46191406 C141.65422478 106.9988728 146.78081165 103.8722339 151.65234375 101.3515625 C152.74400093 100.7994384 152.74400093 100.7994384 153.85771179 100.23616028 C155.41359058 99.44832296 156.96766926 98.65692225 158.52008057 97.86227417 C162.60561591 95.77123143 166.70415714 93.70592675 170.80078125 91.63671875 C171.60787537 91.22811111 172.41496948 90.81950348 173.246521 90.39851379 C179.33140739 87.32220491 185.4565758 84.34293812 191.625 81.4375 C201.90584858 76.58072149 212.0624032 71.4871114 222.222229 66.38375854 C232.1790436 61.38443299 242.16771449 56.46974808 252.23901367 51.70385742 C259.0829223 48.46081026 265.86098034 45.09913531 272.59765625 41.63867188 C277.78720685 39 277.78720685 39 280 39 C280 26.13 280 13.26 280 0 C290.11723582 6.74482388 290.11723582 6.74482388 293.30859375 9.39453125 C293.99244141 9.95720703 294.67628906 10.51988281 295.38085938 11.09960938 C296.05955078 11.66486328 296.73824219 12.23011719 297.4375 12.8125 C298.83067578 13.96648213 300.22514414 15.11890611 301.62109375 16.26953125 C302.2236499 16.77073486 302.82620605 17.27193848 303.44702148 17.78833008 C305.00019374 19.08243365 305.00019374 19.08243365 307 20 C307 76.43 307 132.86 307 191 C196.78 191 86.56 191 -27 191 C-27.268125 162.99125 -27.53625 134.9825 -27.8125 106.125 C-27.93085205 97.2886377 -28.0492041 88.45227539 -28.17114258 79.34814453 C-28.2298584 68.53881836 -28.2298584 68.53881836 -28.24076843 63.474823 C-28.25285925 59.94501037 -28.30146931 56.41775128 -28.3724823 52.88864136 C-28.46201328 48.37914872 -28.48832829 43.87333959 -28.46993959 39.36304069 C-28.47378089 37.71284116 -28.4993707 36.06250619 -28.5497967 34.41307282 C-28.89922259 22.42115352 -28.89922259 22.42115352 -25.71902633 18.3669982 C-22.19385898 14.96106312 -18.1914303 12.5025739 -14 10 C-12.62269736 8.96883389 -11.25692645 7.92125024 -9.921875 6.8359375 C-9.38175781 6.41699219 -8.84164062 5.99804688 -8.28515625 5.56640625 C-7.21354259 4.73474679 -6.14333976 3.90126765 -5.07421875 3.06640625 C-1.11222718 0 -1.11222718 0 0 0 Z " fill="#F6D046" transform="translate(116,216)"/>
<path d="M0 0 C46.2 0 92.4 0 140 0 C140 60.06 140 120.12 140 182 C97.44444444 203.27777778 97.44444444 203.27777778 82.8828125 210.16796875 C74.45256479 214.19224158 66.12388718 218.42393484 57.77667236 222.61679077 C47.82022439 227.6159334 37.83191514 232.53042718 27.76098633 237.29614258 C20.9170777 240.53918974 14.13901966 243.90086469 7.40234375 247.36132812 C2.21279315 250 2.21279315 250 0 250 C0 233.83 0 217.66 0 201 C-23.1 201 -46.2 201 -70 201 C-70 195.72 -70 190.44 -70 185 C-46.9 185 -23.8 185 0 185 C0 180.38 0 175.76 0 171 C-29.7 171 -59.4 171 -90 171 C-90 165.72 -90 160.44 -90 155 C-60.3 155 -30.6 155 0 155 C0.24709261 142.0618383 0.24709261 142.0618383 -5.69995117 133.8059082 C-6.18789154 133.32556122 -6.67583191 132.84521423 -7.17855835 132.35031128 C-8.77001429 130.79860547 -10.40409296 129.30216203 -12.04296875 127.80078125 C-13.17408867 126.71114642 -14.30165969 125.61781692 -15.42585754 124.52104187 C-18.375224 121.65849488 -21.36142418 118.83805093 -24.3605957 116.02783203 C-29.14930066 111.53158173 -33.88615252 106.98160219 -38.60839272 102.41573143 C-40.24763856 100.84423788 -41.90681441 99.29652144 -43.57011414 97.75056458 C-51.09626356 90.63221516 -58.31713113 81.98172952 -59.23828125 71.21484375 C-59.48532479 60.30592102 -57.36921163 52.73660609 -49.78515625 44.75 C-49.19605469 44.1725 -48.60695312 43.595 -48 43 C-47.50371094 42.505 -47.00742188 42.01 -46.49609375 41.5 C-39.3830653 34.98779956 -31.2910808 34.16602549 -22.05859375 34.51171875 C-13.6876124 35.21242575 -7.3714731 39.90282152 -1 45 C-0.67 30.15 -0.34 15.3 0 0 Z " fill="#E8EBF3" transform="translate(256,73)"/>
<path d="M0 0 C46.2 0 92.4 0 140 0 C140 15.18 140 30.36 140 46 C136.37 43.69 132.74 41.38 129 39 C123.97362763 36.40180117 119.7382575 35.47665177 114.125 35.5625 C113.42246094 35.57079834 112.71992188 35.57909668 111.99609375 35.58764648 C103.05993472 35.8777413 97.24007394 39.07297902 90.7890625 45.07421875 C83.89455937 52.49559439 81.42713727 60.51478669 81.6328125 70.55859375 C83.29816063 86.16680336 95.76069601 95.94343486 106.50390625 106.07421875 C108.99274774 108.46062668 111.47078784 110.85823003 113.94984531 113.25479412 C116.51395553 115.72915018 119.09017404 118.18798374 121.69555664 120.61889648 C124.24875399 123.00271131 126.7623574 125.42264344 129.2544384 127.87021828 C130.65158729 129.22315971 132.0866243 130.53662839 133.52235413 131.84855652 C136.10375977 134.41674805 136.10375977 134.41674805 140 140 C140 144.95 140 149.9 140 155 C110.3 155 80.6 155 50 155 C50 160.28 50 165.56 50 171 C79.7 171 109.4 171 140 171 C140 175.62 140 180.24 140 185 C116.9 185 93.8 185 70 185 C70 190.28 70 195.56 70 201 C93.1 201 116.2 201 140 201 C140 217.17 140 233.34 140 250 C135.31611374 248.43870458 131.14407531 246.69811273 126.78515625 244.47265625 C125.76022316 243.95601662 125.76022316 243.95601662 124.71458435 243.42893982 C123.25387489 242.69239866 121.79402205 241.95415658 120.33496094 241.21435547 C116.4792469 239.25998731 112.6167107 237.31921362 108.75390625 235.37890625 C107.60717941 234.80258957 107.60717941 234.80258957 106.43728638 234.21463013 C100.49370523 231.23347749 94.51313716 228.3383709 88.5 225.5 C78.17787584 220.62026063 67.97826038 215.50752488 57.77630615 210.38302612 C47.96874939 205.45866582 38.13946158 200.59514672 28.20703125 195.92578125 C18.71525754 191.44824018 9.39886565 186.69943283 0 182 C0 121.94 0 61.88 0 0 Z " fill="#FEFEFE" transform="translate(116,73)"/>
<path d="M0 0 C10.11723582 6.74482388 10.11723582 6.74482388 13.30859375 9.39453125 C13.99244141 9.95720703 14.67628906 10.51988281 15.38085938 11.09960938 C16.05955078 11.66486328 16.73824219 12.23011719 17.4375 12.8125 C18.83067578 13.96648213 20.22514414 15.11890611 21.62109375 16.26953125 C22.2236499 16.77073486 22.82620605 17.27193848 23.44702148 17.78833008 C25.00019374 19.08243365 25.00019374 19.08243365 27 20 C27 76.43 27 132.86 27 191 C-28.11 191 -83.22 191 -140 191 C-140 163.61 -140 136.22 -140 108 C-134.95820217 104.84887635 -130.28896417 102.01986707 -125.02734375 99.3984375 C-124.39136765 99.08049728 -123.75539154 98.76255707 -123.10014343 98.4349823 C-121.04800394 97.4107588 -118.99289632 96.3926698 -116.9375 95.375 C-115.49064959 94.65501334 -114.0438731 93.93487813 -112.59716797 93.21459961 C-103.75422903 88.82002021 -94.87106941 84.51796001 -85.94506836 80.29443359 C-76.48577306 75.79854871 -67.13735273 71.08515125 -57.77886963 66.38430786 C-47.82168841 61.38479938 -37.83265587 56.46992335 -27.76098633 51.70385742 C-20.9170777 48.46081026 -14.13901966 45.09913531 -7.40234375 41.63867188 C-2.21279315 39 -2.21279315 39 0 39 C0 26.13 0 13.26 0 0 Z " fill="#F2BC44" transform="translate(396,216)"/>
<path d="M0 0 C2.64533817 1.76625948 5.10265036 3.67404354 7.55078125 5.703125 C11.8978625 4.34466211 14.9245171 1.98753087 18.390625 -0.859375 C25.39758194 -5.52223242 34.44847822 -5.43238024 42.55078125 -4.296875 C51.41577223 -1.55054522 58.95772322 3.94166168 63.890625 11.8515625 C68.1669394 20.03895449 69.02885839 28.85570764 66.75 37.87109375 C62.20817574 49.93580219 52.00270354 58.39932169 43.046875 67.3046875 C42.07302628 68.27666462 41.09940293 69.24886759 40.12599182 70.22128296 C37.59824543 72.7452625 35.06750832 75.26622127 32.53607178 77.78649902 C29.93950288 80.37272629 27.34586283 82.96188739 24.75195312 85.55078125 C19.68771079 90.60438954 14.62029372 95.65480297 9.55078125 100.703125 C5.89051871 99.15701651 3.51315079 96.94211652 0.69384766 94.16845703 C0.22497635 93.70951553 -0.24389496 93.25057404 -0.72697449 92.77772522 C-2.27280748 91.26103771 -3.81080967 89.73672723 -5.34765625 88.2109375 C-6.14181379 87.42526209 -6.14181379 87.42526209 -6.95201492 86.62371445 C-9.75896313 83.84672663 -12.56011395 81.06404426 -15.35644531 78.27636719 C-18.2230581 75.4206629 -21.10769859 72.58395284 -23.99725914 69.75149727 C-26.23478642 67.55155311 -28.45845944 65.33797864 -30.67879105 63.12069321 C-31.73498676 62.07048705 -32.79610614 61.02520542 -33.86249924 59.98535538 C-42.78362828 51.27044306 -50.4683765 41.59400117 -50.76171875 28.640625 C-50.64384273 18.03178334 -46.93380418 11.04031159 -39.44921875 3.703125 C-38.95292969 3.208125 -38.45664063 2.713125 -37.9453125 2.203125 C-27.39938012 -7.45200655 -11.79026034 -6.60387991 0 0 Z " fill="#FB7C82" transform="translate(247.44921875,112.296875)"/>
<path d="M0 0 C8.7229205 5.04886431 15.07093433 11.63445401 18.07421875 21.359375 C20.03327776 31.20858912 18.41832412 39.85411729 13.5 48.5 C7.68736079 55.77865904 0.86016881 62.29955884 -5.71484375 68.8828125 C-6.6613292 69.83252175 -7.607744 70.78230141 -8.55409241 71.73214722 C-10.51453756 73.69851155 -12.47696763 75.66286915 -14.44067383 77.62597656 C-16.9598361 80.14503591 -19.4719704 82.6709864 -21.98253536 85.19861031 C-24.38884116 87.61864386 -26.80225861 90.03153898 -29.21484375 92.4453125 C-30.1168602 93.35451447 -31.01887665 94.26371643 -31.94822693 95.20046997 C-32.77991898 96.02908539 -33.61161102 96.85770081 -34.46850586 97.71142578 C-35.20080917 98.44515411 -35.93311249 99.17888245 -36.68760681 99.93484497 C-38.5 101.5 -38.5 101.5 -40.5 101.5 C-40.61583618 89.59114802 -40.7046864 77.68243001 -40.75906086 65.77312946 C-40.78515764 60.24316323 -40.82055782 54.71358234 -40.87719727 49.18383789 C-40.93151317 43.84756367 -40.96141992 38.51166016 -40.97438622 33.17513084 C-40.98362678 31.13891959 -41.00167157 29.10272868 -41.02865028 27.06667519 C-41.06493475 24.21498354 -41.06994557 21.3648247 -41.06762695 18.51293945 C-41.08560333 17.67064789 -41.10357971 16.82835632 -41.12210083 15.96054077 C-41.08384561 11.61382253 -40.92446508 10.02020414 -38.07756042 6.53117371 C-36.80166801 5.52574272 -36.80166801 5.52574272 -35.5 4.5 C-34.90316406 4.00113281 -34.30632812 3.50226563 -33.69140625 2.98828125 C-33.15386719 2.60027344 -32.61632812 2.21226563 -32.0625 1.8125 C-31.52753906 1.41675781 -30.99257813 1.02101563 -30.44140625 0.61328125 C-21.46136791 -4.53623772 -9.23688615 -4.32464898 0 0 Z " fill="#F9455C" transform="translate(296.5,110.5)"/>
<path d="M0 0 C59.4 0 118.8 0 180 0 C180 4.95 180 9.9 180 15 C120.6 15 61.2 15 0 15 C0 10.05 0 5.1 0 0 Z " fill="#5B606B" transform="translate(166,228)"/>
<path d="M0 0 C46.2 0 92.4 0 140 0 C140 4.95 140 9.9 140 15 C93.8 15 47.6 15 0 15 C0 10.05 0 5.1 0 0 Z " fill="#5B606B" transform="translate(186,258)"/>
<path d="M0 0 C29.7 0 59.4 0 90 0 C90 4.62 90 9.24 90 14 C60.3 14 30.6 14 0 14 C0 9.38 0 4.76 0 0 Z " fill="#333940" transform="translate(256,229)"/>
<path d="M0 0 C23.1 0 46.2 0 70 0 C70 4.62 70 9.24 70 14 C46.9 14 23.8 14 0 14 C0 9.38 0 4.76 0 0 Z " fill="#333940" transform="translate(256,259)"/>
<path d="M0 0 C10.125 6.75 10.125 6.75 13.59765625 9.6484375 C14.33564453 10.26074219 15.07363281 10.87304688 15.83398438 11.50390625 C16.56939453 12.12136719 17.30480469 12.73882812 18.0625 13.375 C19.21782227 14.33599609 19.21782227 14.33599609 20.39648438 15.31640625 C22.26760807 16.87373902 24.13534391 18.43493477 26 20 C22.62489485 23.56055049 19.24580524 26.34555922 15.125 29 C11.64622168 31.26206275 8.21143564 33.53271986 4.875 36 C2 38 2 38 0 38 C0 25.46 0 12.92 0 0 Z " fill="#F1A73C" transform="translate(396,216)"/>
<path d="M0 0 C0 12.54 0 25.08 0 38 C-6.11536159 34.60257689 -11.83010131 31.28613987 -17.5625 27.375 C-18.28501953 26.89804688 -19.00753906 26.42109375 -19.75195312 25.9296875 C-20.77385742 25.23359375 -20.77385742 25.23359375 -21.81640625 24.5234375 C-22.42943604 24.11013184 -23.04246582 23.69682617 -23.67407227 23.27099609 C-24.11162842 22.85156738 -24.54918457 22.43213867 -25 22 C-25 19 -25 19 -23.65820312 17.5612793 C-22.72911133 16.82518433 -22.72911133 16.82518433 -21.78125 16.07421875 C-20.75257812 15.24954102 -20.75257812 15.24954102 -19.703125 14.40820312 C-18.97609375 13.84037109 -18.2490625 13.27253906 -17.5 12.6875 C-16.80390625 12.13126953 -16.1078125 11.57503906 -15.390625 11.00195312 C-1.55813446 0 -1.55813446 0 0 0 Z " fill="#F2BD45" transform="translate(116,216)"/>
</svg>
