<?xml version="1.0" encoding="UTF-8"?>
<svg xmlns="http://www.w3.org/2000/svg" xmlns:xlink="http://www.w3.org/1999/xlink" width="20pt" height="20pt" viewBox="0 0 20 20" version="1.1">
<g id="surface1">
<path style=" stroke:none;fill-rule:nonzero;fill:rgb(32.941176%,52.54902%,61.960784%);fill-opacity:1;" d="M 19.996094 10.25 C 20 10.167969 20 10.085938 20 10 C 20 4.476562 15.523438 0 10 0 C 4.476562 0 0 4.476562 0 10 C 0 15.367188 4.230469 19.75 9.542969 19.988281 Z M 19.996094 10.25 "/>
<path style=" stroke:none;fill-rule:nonzero;fill:rgb(30.980392%,47.843137%,56.470588%);fill-opacity:1;" d="M 6.320312 4.921875 L 4.777344 15.222656 L 9.542969 19.988281 C 9.691406 19.996094 9.847656 20 10 20 C 15.4375 20 19.863281 15.65625 19.996094 10.25 L 14.308594 4.566406 Z M 6.320312 4.921875 "/>
<path style=" stroke:none;fill-rule:nonzero;fill:rgb(97.647059%,65.882353%,14.509804%);fill-opacity:1;" d="M 15.433594 10 L 13.476562 10 C 13.476562 11.917969 11.917969 13.476562 10 13.476562 C 8.082031 13.476562 6.523438 11.917969 6.523438 10 C 6.523438 8.082031 8.082031 6.523438 10 6.523438 L 11.738281 3.941406 L 9.429688 3.941406 C 6.339844 4.226562 3.914062 6.835938 3.914062 10 C 3.914062 13.355469 6.644531 16.085938 10 16.085938 C 13.148438 16.085938 15.746094 13.683594 16.054688 10.613281 Z M 15.433594 10 "/>
<path style=" stroke:none;fill-rule:nonzero;fill:rgb(98.431373%,75.294118%,17.647059%);fill-opacity:1;" d="M 15.433594 10 L 17.390625 10 C 17.390625 14.074219 14.074219 17.390625 10 17.390625 C 5.925781 17.390625 2.609375 14.074219 2.609375 10 C 2.609375 5.925781 5.925781 2.609375 10 2.609375 L 10.871094 3.585938 L 10 4.566406 C 7 4.566406 4.566406 7 4.566406 10 C 4.566406 13 7 15.433594 10 15.433594 C 13 15.433594 15.433594 13 15.433594 10 Z M 15.433594 10 "/>
<path style=" stroke:none;fill-rule:nonzero;fill:rgb(100%,92.156863%,23.137255%);fill-opacity:1;" d="M 10 1.304688 L 10 4.566406 L 12.15625 5.125 L 14.308594 4.566406 Z M 10 1.304688 "/>
<path style=" stroke:none;fill-rule:nonzero;fill:rgb(98.431373%,75.294118%,17.647059%);fill-opacity:1;" d="M 10 4.566406 L 10 7.824219 L 14.308594 4.566406 Z M 10 4.566406 "/>
</g>
</svg>
