<?xml version="1.0" encoding="UTF-8"?>
<svg xmlns="http://www.w3.org/2000/svg" xmlns:xlink="http://www.w3.org/1999/xlink" width="20pt" height="20pt" viewBox="0 0 512 512" version="1.1">
<g><g><g><g><g id="XMLID_1138_"><g id="XMLID_1139_"><g id="XMLID_1209_"><g id="XMLID_1210_"><g id="XMLID_1211_"><g id="XMLID_1212_"><g id="XMLID_1213_"><g id="XMLID_1214_"><g id="XMLID_1215_"><g id="XMLID_1216_"><g id="XMLID_1217_"><g id="XMLID_1218_"><g id="XMLID_1219_"><g id="XMLID_1220_"><g><path d="m512 256c0 70.24-28.3 133.87-74.1 180.13-25.76 26.01-338.04 26.01-363.8 0-45.8-46.26-74.1-109.89-74.1-180.13 0-141.38 114.62-256 256-256s256 114.62 256 256z" fill="#fbe280"/></g></g></g></g></g></g></g></g></g></g></g></g></g></g></g></g></g></g><path d="m511.865 247.775-136.775-136.775-90.716.541-122.388 105.197 231.732 231.732c22.921-3.105 39.109-7.218 44.182-12.34 45.8-46.26 74.1-109.89 74.1-180.13 0-2.752-.049-5.493-.135-8.225z" fill="#efc859"/><path d="m199.97 250.232h112.06v118.84h-112.06z" fill="#eaa678"/><path d="m256 250.236h56.03v118.84h-56.03z" fill="#d38c5b"/><path d="m199.97 330.05h112.06v118.84h-112.06z" fill="#ffc397"/><path d="m256 330.05h56.03v118.84h-56.03z" fill="#eaa678"/><path d="m344.251 152.225c-3.728-56.6-49.511-77.517-88.251-77.517s-84.523 20.917-88.251 77.517c-10.018 1.938-17.134 15.077-16.014 25.701l1.717 24.177c1.175 11.157 10.982 19.301 21.79 18.089l1.864-.202c22.139 59.446 56.857 65.644 78.894 69.125 22.037-3.48 56.756-9.678 78.894-69.125l1.864.202c10.807 1.212 20.614-6.932 21.79-18.089l1.717-24.177c1.12-10.624-5.996-23.763-16.014-25.701z" fill="#ffc397"/><path d="m360.265 177.926-1.717 24.177c-1.175 11.157-10.982 19.301-21.79 18.089l-1.864-.202c-7.566 20.293-16.592 34.388-26.078 44.277-18.291 19.081-38.299 22.552-52.817 24.847v-214.406c38.74 0 84.523 20.917 88.251 77.517 10.019 1.938 17.135 15.077 16.015 25.701z" fill="#eaa678"/><path d="m375.093 111.002s-45.285-54.409-96.923-66.614c-23.369-5.523-53.396 1.561-73.427 22.718-26.393 2.308-57.478 23.467-39.658 105.423l20.702 23.07 10.574-53.526c23.378 6.477 70.77 15.61 118.993 1.378l10.302 52.149 20.702-23.07c3.691-17.463 4.732-31.92 3.856-43.913 8.491-4.869 16.831-10.68 24.879-17.615z" fill="#af5e22"/><path d="m350.21 128.62c.88 11.99-.16 26.44-3.85 43.91l-20.7 23.07-10.31-52.15c-20.53 6.06-40.91 7.88-59.35 7.47v-108.07c7.69-.63 15.22-.1 22.17 1.54 51.64 12.2 96.92 66.61 96.92 66.61-8.04 6.94-16.38 12.75-24.88 17.62z" fill="#89491d"/><path d="m345.92 495.75c-10.96 4.12-22.28 7.5-33.89 10.09-18.03 4.04-36.78 6.16-56.03 6.16s-38-2.12-56.03-6.16c-11.61-2.59-22.93-5.97-33.89-10.09l33.89-165.7c12.93 20.73 34.48 31.09 56.03 31.09s43.1-10.36 56.03-31.09z" fill="#fff"/><path d="m345.92 495.75c-10.96 4.12-22.28 7.5-33.89 10.09-18.03 4.04-36.78 6.16-56.03 6.16v-150.86c21.55 0 43.1-10.36 56.03-31.09z" fill="#cecece"/><path d="m199.97 330.05v175.79c-48.62-10.85-92.03-35.54-125.87-69.71v-61.7c0-24.51 19.87-44.38 44.38-44.38z" fill="#336b90"/><path d="m437.9 374.43v61.7c-33.84 34.17-77.25 58.86-125.87 69.71v-175.79h81.49c24.51 0 44.38 19.87 44.38 44.38z" fill="#205077"/><path d="m157.33 419.645v72.625c-11.17-4.66-21.95-10.11-32.25-16.25v-56.375z" fill="#205077"/><path d="m386.92 419.645v56.375c-10.3 6.14-21.08 11.59-32.25 16.25v-72.625z" fill="#163c66"/></g></svg>
