<?xml version="1.0" encoding="UTF-8"?>
<svg xmlns="http://www.w3.org/2000/svg" xmlns:xlink="http://www.w3.org/1999/xlink" width="20pt" height="20pt" viewBox="0 0 20 20" version="1.1">
<g id="surface1">
<path style=" stroke:none;fill-rule:nonzero;fill:rgb(47.058824%,81.568627%,56.470588%);fill-opacity:1;" d="M 20 10 C 20 12.4375 19.128906 14.671875 17.679688 16.40625 C 15.84375 18.601562 3.734375 18.097656 2.320312 16.40625 C 0.871094 14.671875 0 12.4375 0 10 C 0 4.476562 4.476562 0 10 0 C 15.523438 0 20 4.476562 20 10 Z M 20 10 "/>
<path style=" stroke:none;fill-rule:nonzero;fill:rgb(85.098039%,44.705882%,24.313725%);fill-opacity:1;" d="M 11.367188 3.441406 C 11.367188 3.441406 13.3125 2.324219 12.886719 0 L 7.113281 0 C 6.6875 2.324219 8.632812 3.441406 8.632812 3.441406 "/>
<path style=" stroke:none;fill-rule:nonzero;fill:rgb(85.098039%,44.705882%,24.313725%);fill-opacity:1;" d="M 18.367188 13.210938 C 18.367188 14.390625 18.121094 15.464844 17.679688 16.40625 C 15.84375 18.601562 13.085938 20 10 20 C 6.914062 20 4.15625 18.601562 2.320312 16.40625 C 1.878906 15.464844 1.632812 14.390625 1.632812 13.210938 C 1.632812 8.589844 6.984375 3.859375 10 3.859375 C 12.441406 3.859375 18.367188 8.589844 18.367188 13.210938 Z M 18.367188 13.210938 "/>
<path style=" stroke:none;fill-rule:nonzero;fill:rgb(74.117647%,32.941176%,13.72549%);fill-opacity:1;" d="M 9.347656 3.441406 L 8.632812 3.441406 C 8.632812 3.441406 6.6875 2.324219 7.113281 0 L 8.625 0 C 8.421875 2.324219 9.347656 3.441406 9.347656 3.441406 Z M 9.347656 3.441406 "/>
<path style=" stroke:none;fill-rule:nonzero;fill:rgb(74.117647%,32.941176%,13.72549%);fill-opacity:1;" d="M 6.011719 13.210938 C 6.011719 16.242188 6.78125 18.554688 7.929688 19.785156 C 5.695312 19.316406 3.734375 18.097656 2.320312 16.40625 C 1.878906 15.464844 1.632812 14.390625 1.632812 13.210938 C 1.632812 8.589844 6.988281 3.859375 10 3.859375 C 8.5625 3.859375 6.011719 8.589844 6.011719 13.210938 Z M 6.011719 13.210938 "/>
<path style=" stroke:none;fill-rule:nonzero;fill:rgb(95.686275%,86.666667%,27.058824%);fill-opacity:1;" d="M 11.863281 3.128906 L 8.136719 3.128906 C 7.777344 3.128906 7.492188 3.417969 7.492188 3.777344 C 7.492188 4.132812 7.777344 4.421875 8.136719 4.421875 L 11.863281 4.421875 C 12.222656 4.421875 12.507812 4.132812 12.507812 3.777344 C 12.507812 3.417969 12.222656 3.128906 11.863281 3.128906 Z M 11.863281 3.128906 "/>
<path style=" stroke:none;fill-rule:nonzero;fill:rgb(90.588235%,64.705882%,18.039216%);fill-opacity:1;" d="M 9.210938 4.230469 C 9.328125 4.347656 9.488281 4.421875 9.667969 4.421875 L 8.136719 4.421875 C 7.957031 4.421875 7.796875 4.347656 7.679688 4.230469 C 7.5625 4.117188 7.492188 3.953125 7.492188 3.777344 C 7.492188 3.417969 7.78125 3.128906 8.136719 3.128906 L 9.667969 3.128906 C 9.3125 3.128906 9.023438 3.417969 9.023438 3.777344 C 9.023438 3.953125 9.09375 4.117188 9.210938 4.230469 Z M 9.210938 4.230469 "/>
<path style=" stroke:none;fill-rule:nonzero;fill:rgb(95.686275%,86.666667%,27.058824%);fill-opacity:1;" d="M 12.703125 13.09375 C 12.375 12.496094 11.828125 12.046875 11.125 11.796875 C 10.980469 11.75 10.832031 11.695312 10.6875 11.640625 L 10.6875 9.089844 C 10.957031 9.183594 11.128906 9.3125 11.183594 9.359375 C 11.5 9.617188 11.96875 9.574219 12.226562 9.257812 C 12.488281 8.941406 12.441406 8.476562 12.128906 8.214844 C 11.988281 8.101562 11.472656 7.714844 10.6875 7.566406 L 10.6875 7.105469 C 10.6875 6.695312 10.355469 6.363281 9.945312 6.363281 C 9.539062 6.363281 9.207031 6.695312 9.207031 7.105469 L 9.207031 7.617188 C 9.148438 7.628906 9.09375 7.644531 9.035156 7.664062 C 8.125 7.9375 7.449219 8.714844 7.265625 9.6875 C 7.09375 10.582031 7.386719 11.445312 8.019531 11.945312 C 8.328125 12.183594 8.699219 12.40625 9.207031 12.636719 L 9.207031 15.984375 C 8.828125 15.933594 8.550781 15.816406 8.113281 15.527344 C 7.773438 15.304688 7.3125 15.402344 7.089844 15.742188 C 6.863281 16.085938 6.960938 16.546875 7.304688 16.769531 C 8.046875 17.253906 8.570312 17.421875 9.207031 17.472656 L 9.207031 17.988281 C 9.207031 18.398438 9.539062 18.730469 9.945312 18.730469 C 10.355469 18.730469 10.6875 18.398438 10.6875 17.988281 L 10.6875 17.402344 C 11.1875 17.285156 11.640625 17.042969 12.023438 16.691406 C 12.53125 16.222656 12.875 15.589844 12.992188 14.90625 C 13.097656 14.273438 12.996094 13.628906 12.703125 13.09375 Z M 8.933594 10.777344 C 8.738281 10.625 8.65625 10.304688 8.71875 9.960938 C 8.769531 9.699219 8.921875 9.386719 9.207031 9.203125 L 9.207031 10.964844 C 9.105469 10.902344 9.015625 10.84375 8.933594 10.777344 Z M 11.53125 14.660156 C 11.453125 15.109375 11.167969 15.582031 10.6875 15.832031 L 10.6875 13.21875 C 11.628906 13.585938 11.570312 14.410156 11.53125 14.660156 Z M 11.53125 14.660156 "/>
</g>
</svg>
