<?xml version="1.0" encoding="iso-8859-1"?>
<!-- Generator: Adobe Illustrator 19.0.0, SVG Export Plug-In . SVG Version: 6.00 Build 0)  -->
<svg version="1.1" id="Layer_1" xmlns="http://www.w3.org/2000/svg" xmlns:xlink="http://www.w3.org/1999/xlink" x="0px" y="0px" width="20pt" height="20pt"
	 viewBox="0 0 512 512" style="enable-background:new 0 0 512 512;" xml:space="preserve">
<circle style="fill:#FFEDB5;" cx="256" cy="256" r="256"/>
<path style="fill:#FEE187;" d="M511.981,257.45L377.722,123.19l-186.656,66.725l-6.322,132.741l-88.435,65.872l120.485,120.485
	c12.781,1.964,25.872,2.986,39.203,2.986C396.9,512,511.2,398.167,511.981,257.45z"/>
<path style="fill:#273B7A;" d="M381.845,133.073c0-8.98-8.385-15.605-17.122-13.526l-176.335,41.95
	c-6.265,1.489-10.685,7.087-10.685,13.526V311.57c-15.362-9.695-38.033-10.14-58.484,0.552
	c-28.1,14.689-41.353,44.823-29.601,67.303c11.752,22.48,44.06,28.796,72.159,14.105c21.126-11.045,33.857-30.817,33.882-49.505
	h0.003V210.684l168.22-40.017v113.109c-15.362-9.695-38.033-10.14-58.484,0.552c-28.1,14.689-41.353,44.822-29.601,67.303
	c11.752,22.48,44.06,28.796,72.159,14.105c21.006-10.981,33.709-30.591,33.88-49.183l0.007,0.002L381.845,133.073L381.845,133.073z"
	/>
<path style="fill:#121149;" d="M364.723,119.548l-110.447,26.276v50.919l109.608-26.076v113.109
	c-15.362-9.695-38.033-10.14-58.484,0.552c-28.1,14.689-41.353,44.822-29.601,67.303c11.752,22.48,44.06,28.796,72.159,14.105
	c21.006-10.981,33.709-30.591,33.88-49.183l0.007,0.002v-183.48C381.845,124.094,373.46,117.47,364.723,119.548z"/>
<g>
</g>
<g>
</g>
<g>
</g>
<g>
</g>
<g>
</g>
<g>
</g>
<g>
</g>
<g>
</g>
<g>
</g>
<g>
</g>
<g>
</g>
<g>
</g>
<g>
</g>
<g>
</g>
<g>
</g>
</svg>
