<svg id="Layer_1" enable-background="new 0 0 512 512" height="20pt" viewBox="0 0 512 512" width="20pt" xmlns="http://www.w3.org/2000/svg"><g><g><g><g id="XMLID_1331_"><g id="XMLID_1332_"><g id="XMLID_1333_"><g id="XMLID_1334_"><g id="XMLID_1335_"><g id="XMLID_1336_"><g id="XMLID_1337_"><g id="XMLID_1338_"><g id="XMLID_1339_"><g id="XMLID_1340_"><g id="XMLID_1341_"><g id="XMLID_1342_"><g id="XMLID_1343_"><g id="XMLID_1344_"><g id="XMLID_1345_"><circle cx="256" cy="256" fill="#ffe780" r="256"/></g></g></g></g></g></g></g></g></g></g></g></g></g></g></g></g></g><path d="m512 256c0-21.15-2.583-41.694-7.418-61.352l-150.358-150.357c-61.355-11.337-76.034 22.905-84.931 47.667l-30.248-30.107-58.672 49.291 64.682 64.805-5.992 13.658-75.863 56.16 76.558 76.646-102.451 36.381 49.362 44.876 2.346 61 46.518 46.519c6.752.532 13.576.813 20.467.813 141.385 0 256-114.615 256-256z" fill="#fed940"/><g><g><path d="m234.442 117.411h43.117v198.959h-43.117z" fill="#2fc1b6"/><path d="m256 117.41h21.56v198.96h-21.56z" fill="#109b8e"/><path d="m167.815 347.089 21.198 117.578h133.974l21.198-117.578z" fill="#605553"/><path d="m344.19 347.09-1.98 10.962-19.22 106.612h-66.99v-117.574z" fill="#4c403f"/><path d="m137.305 307.296h237.39v51.495h-237.39z" fill="#776d6b"/><path d="m256 307.3h118.69v51.49h-118.69z" fill="#605553"/><g fill="#6ae1db"><path d="m354.224 44.291c-80.217-14.823-95.985 32.93-98.594 60.311-2.326-27.381-17.579-75.133-97.797-60.311 0 0-9.62 102.46 97.706 78.152 107.325 24.308 98.685-78.152 98.685-78.152z"/><path d="m375.975 164.48c-97.981-18.105-117.241 40.222-120.428 73.667-2.841-33.445-21.473-91.772-119.454-73.667 0 0-11.751 125.15 119.343 95.459 131.094 29.69 120.539-95.459 120.539-95.459z"/></g></g><g fill="#2fc1b6"><path d="m277.56 125.85c-6.6-.49-13.77-1.56-21.56-3.31v-21.23c3.57-27.71 21.13-71.26 98.22-57.02 0 0 7.41 87.82-76.66 81.56z"/><path d="m277.56 263.67c-6.72-.7-13.9-1.89-21.56-3.61v-25.95c1.97-15.32 7.44-34.58 21.56-49.47 17.08-18.05 46.85-29.69 98.42-20.16 0 0 9.32 110.57-98.42 99.19z"/></g></g></g></svg>
