<?xml version="1.0" encoding="UTF-8"?>
<svg xmlns="http://www.w3.org/2000/svg" xmlns:xlink="http://www.w3.org/1999/xlink" width="20pt" height="20pt" viewBox="0 0 297 297" version="1.1"
x="0px" y="0px"
 style="enable-background:new 0 0 297 297;" xml:space="preserve">
<g>
	<g>
		<g>
			<g>
				<circle style="fill:#345065;" cx="148.5" cy="148.5" r="148.5"/>
			</g>
		</g>
	</g>
	<path style="fill:#32373B;" d="M163.771,81.027l-88.148,90.126l118.611,118.659c42.034-13.594,75.865-45.413,92.174-86.148
		L163.771,81.027z"/>
	<g>
		<path style="fill:#3498DB;" d="M231.005,237.422L231.005,237.422c6.202-6.202,6.202-16.258,0-22.46l-67.381-67.381
			c-6.202-6.202-16.258-6.202-22.46,0l0,0c-6.202,6.202-6.202,16.258,0,22.46l67.381,67.381
			C214.747,243.625,224.803,243.625,231.005,237.422z"/>
	</g>
	<g>
		<circle style="fill:#B8C9F1;" cx="118.703" cy="125.12" r="63.046"/>
	</g>
	<g>
		<path style="fill:#8297BF;" d="M163.284,80.54c-13.295-13.295-31.051-19.397-48.45-18.333v125.827
			c17.399,1.064,35.155-5.038,48.45-18.333C187.905,145.08,187.905,105.161,163.284,80.54z"/>
	</g>
	<g>
		<circle style="fill:#FFFFFF;" cx="118.703" cy="125.12" r="42.031"/>
	</g>
	<g>
		<path style="fill:#E3E5E4;" d="M148.424,95.4c-9.192-9.192-21.583-13.233-33.59-12.13v83.7c12.007,1.104,24.398-2.937,33.59-12.13
			C164.838,138.427,164.838,111.814,148.424,95.4z"/>
	</g>
</g>
<g>
</g>
<g>
</g>
<g>
</g>
<g>
</g>
<g>
</g>
<g>
</g>
<g>
</g>
<g>
</g>
<g>
</g>
<g>
</g>
<g>
</g>
<g>
</g>
<g>
</g>
<g>
</g>
<g>
</g>
</svg>
