<svg id="Capa_1" enable-background="new 0 0 512 512" height="20pt" viewBox="0 0 512 512" width="20pt" xmlns="http://www.w3.org/2000/svg"><g><g><g><g><g><g><g><g><g><path d="m256 0c-141.385 0-256 114.615-256 256s114.615 256 256 256 256-114.615 256-256-114.615-256-256-256z" fill="#a3d4ff"/></g></g></g></g></g></g></g></g><g fill="#65b1fc"><path d="m512 256c0-7.481-.321-14.888-.95-22.207l-232.843-232.843-29.02 210.669-140.504 28.13 30.588 30.588-14.949 22.522 207.672 207.672c104.278-32.371 180.006-129.607 180.006-244.531z"/><path d="m271.324 511.549-95.796-95.797-2.965 4.605-56.515-56.515-23.708 19.815 125.52 125.52c12.442 1.86 25.179 2.823 38.14 2.823 5.145 0 10.254-.152 15.324-.451z"/><path d="m268.675 440.482-2.165 4.883-79.476-79.477-1.689 2.165-53.658-53.658-23.004 27.975 168.746 168.745c17.942-1.487 35.359-4.824 52.06-9.82z"/></g><g><path d="m278.207.95c-7.319-.629-14.725-.95-22.207-.95-7.481 0-14.888.321-22.206.95v151.377h44.413z" fill="#a260e5"/></g><g><path d="m278.207.95c-7.319-.629-14.725-.95-22.207-.95-.052 0-.104.001-.156.001v152.326h22.362v-151.377z" fill="#7a3eb5"/></g><g><path d="m368.535 204.389h-225.07v-50.007c0-29.888 24.229-54.117 54.117-54.117h116.837c29.888 0 54.117 24.229 54.117 54.117v50.007z" fill="#7a3eb5"/></g><g><path d="m368.535 154.382c0-29.888-24.229-54.117-54.117-54.117h-58.574v104.124h112.691z" fill="#4b1b7a"/></g><g><path d="m108.683 180.538h294.635v59.212h-294.635z" fill="#a260e5"/></g><g><path d="m255.844 180.538h147.473v59.212h-147.473z" fill="#7a3eb5"/></g><g><g><path d="m256 292.86c-8.284 0-15-6.716-15-15v-3.5c0-8.284 6.716-15 15-15s15 6.716 15 15v3.5c0 8.284-6.715 15-15 15z" fill="#fff"/></g><g><path d="m256 411.964c-8.284 0-15-6.716-15-15v-8.017c0-8.284 6.716-15 15-15s15 6.716 15 15v8.017c0 8.285-6.715 15-15 15zm0-59.552c-8.284 0-15-6.716-15-15v-8.017c0-8.284 6.716-15 15-15s15 6.716 15 15v8.017c0 8.284-6.715 15-15 15z" fill="#fff"/></g><g><path d="m256 467c-8.284 0-15-6.716-15-15v-3.5c0-8.284 6.716-15 15-15s15 6.716 15 15v3.5c0 8.284-6.715 15-15 15z" fill="#fff"/></g></g><g><g><path d="m256 259.36c-.053 0-.104.007-.156.008v33.484c.053 0 .103.008.156.008 8.284 0 15-6.716 15-15v-3.5c0-8.284-6.715-15-15-15z" fill="#e9edf5"/></g><g fill="#e9edf5"><path d="m256 411.964c8.284 0 15-6.716 15-15v-8.017c0-8.284-6.716-15-15-15-.053 0-.104.007-.156.008v38.001c.053.001.104.008.156.008z"/><path d="m271 337.412v-8.017c0-8.284-6.716-15-15-15-.053 0-.104.007-.156.008v38.001c.053 0 .103.008.156.008 8.285 0 15-6.716 15-15z"/></g><g><path d="m256 433.5c-.053 0-.104.007-.156.008v33.484c.053 0 .103.008.156.008 8.284 0 15-6.716 15-15v-3.5c0-8.284-6.715-15-15-15z" fill="#e9edf5"/></g></g><g><path d="m164.512 449.11c-.988 0-1.991-.098-2.997-.302-8.119-1.646-13.366-9.563-11.72-17.682l1.391-6.86c1.646-8.12 9.562-13.366 17.682-11.72 8.119 1.646 13.366 9.563 11.72 17.682l-1.391 6.86c-1.442 7.114-7.697 12.022-14.685 12.022zm10.336-50.962c-.988 0-1.991-.098-2.997-.302-8.119-1.646-13.366-9.563-11.72-17.682l1.391-6.86c1.646-8.12 9.563-13.369 17.682-11.72 8.119 1.646 13.366 9.563 11.72 17.682l-1.391 6.86c-1.443 7.113-7.698 12.022-14.685 12.022zm10.335-50.962c-.989 0-1.991-.098-2.998-.302-8.119-1.647-13.366-9.564-11.719-17.683l1.392-6.86c1.647-8.119 9.563-13.364 17.683-11.719 8.119 1.647 13.366 9.564 11.719 17.683l-1.392 6.86c-1.443 7.112-7.698 12.021-14.685 12.021zm10.336-50.963c-.988 0-1.991-.098-2.997-.302-8.119-1.646-13.366-9.563-11.72-17.682l1.391-6.86c1.646-8.119 9.561-13.368 17.682-11.72 8.119 1.646 13.366 9.563 11.72 17.682l-1.391 6.86c-1.442 7.113-7.697 12.022-14.685 12.022z" fill="#fff"/></g><g><path d="m104.374 389.707c-1.479 0-2.98-.22-4.466-.683-7.909-2.464-12.323-10.874-9.859-18.783l.329-1.055c2.464-7.91 10.872-12.327 18.783-9.859 7.909 2.464 12.323 10.874 9.859 18.783l-.329 1.055c-2.002 6.423-7.925 10.542-14.317 10.542zm13.719-44.016c-1.479 0-2.982-.22-4.468-.684-7.909-2.465-12.322-10.875-9.856-18.784l2.083-6.683c2.465-7.909 10.875-12.322 18.784-9.856 7.909 2.465 12.322 10.875 9.856 18.784l-2.083 6.683c-2.002 6.422-7.925 10.54-14.316 10.54zm15.474-49.644c-1.479 0-2.981-.22-4.468-.684-7.909-2.465-12.322-10.875-9.857-18.784l2.083-6.683c2.464-7.91 10.875-12.322 18.784-9.857s12.322 10.875 9.857 18.784l-2.083 6.683c-2.002 6.423-7.925 10.541-14.316 10.541z" fill="#fff"/></g><g><path d="m347.488 449.11c-6.988 0-13.243-4.908-14.685-12.022l-1.391-6.86c-1.646-8.119 3.601-16.035 11.72-17.682 8.117-1.649 16.035 3.6 17.682 11.72l1.391 6.86c1.646 8.119-3.601 16.035-11.72 17.682-1.006.204-2.009.302-2.997.302zm-10.336-50.962c-6.988 0-13.243-4.908-14.685-12.022l-1.391-6.86c-1.646-8.119 3.601-16.036 11.72-17.682 8.118-1.649 16.035 3.6 17.682 11.72l1.391 6.86c1.646 8.119-3.601 16.036-11.72 17.682-1.005.204-2.009.302-2.997.302zm-10.335-50.962c-6.988 0-13.242-4.908-14.685-12.021l-1.392-6.86c-1.647-8.119 3.6-16.036 11.719-17.683 8.117-1.648 16.036 3.6 17.683 11.719l1.392 6.86c1.647 8.119-3.6 16.036-11.719 17.683-1.006.203-2.01.302-2.998.302zm-10.336-50.963c-6.988 0-13.243-4.908-14.685-12.022l-1.391-6.86c-1.646-8.119 3.601-16.036 11.72-17.682 8.118-1.647 16.035 3.601 17.682 11.72l1.391 6.86c1.646 8.119-3.601 16.036-11.72 17.682-1.006.204-2.009.302-2.997.302z" fill="#e9edf5"/></g><g><path d="m407.626 389.707c-6.392 0-12.315-4.118-14.316-10.542l-.329-1.055c-2.464-7.909 1.95-16.318 9.859-18.783 7.907-2.466 16.318 1.949 18.783 9.859l.329 1.055c2.464 7.909-1.95 16.318-9.859 18.783-1.486.463-2.989.683-4.467.683zm-13.719-44.016c-6.392 0-12.314-4.117-14.316-10.54l-2.083-6.683c-2.465-7.909 1.948-16.319 9.856-18.784s16.319 1.948 18.784 9.856l2.083 6.683c2.465 7.909-1.948 16.319-9.856 18.784-1.486.464-2.99.684-4.468.684zm-15.474-49.644c-6.392 0-12.314-4.117-14.316-10.541l-2.083-6.683c-2.465-7.909 1.948-16.319 9.857-18.784 7.907-2.467 16.318 1.947 18.784 9.857l2.083 6.683c2.465 7.909-1.948 16.319-9.857 18.784-1.486.464-2.989.684-4.468.684z" fill="#e9edf5"/></g></g></svg>
