<?xml version="1.0" encoding="UTF-8"?>
<svg xmlns="http://www.w3.org/2000/svg" xmlns:xlink="http://www.w3.org/1999/xlink" width="20pt" height="20pt" viewBox="0 0 20 20" version="1.1">
<g id="surface1">
<path style=" stroke:none;fill-rule:nonzero;fill:rgb(100%,42.745098%,23.137255%);fill-opacity:1;" d="M 20 10 C 20 15.523438 15.523438 20 10 20 C 4.476562 20 0 15.523438 0 10 C 0 4.476562 4.476562 0 10 0 C 15.523438 0 20 4.476562 20 10 Z M 20 10 "/>
<path style=" stroke:none;fill-rule:nonzero;fill:rgb(84.705882%,27.45098%,16.470588%);fill-opacity:1;" d="M 20 10 C 20 9.8125 19.996094 9.625 19.984375 9.441406 L 13.78125 3.238281 L 6.414062 10.445312 L 7.042969 11.070312 C 7.476562 11.53125 9.011719 13.675781 9.023438 13.761719 L 7.003906 15.328125 L 7.964844 16.296875 C 7.964844 16.296875 8.035156 18.007812 8.324219 18.210938 L 10.109375 20 C 15.582031 19.941406 20 15.484375 20 10 Z M 20 10 "/>
<path style=" stroke:none;fill-rule:nonzero;fill:rgb(14.509804%,29.411765%,43.921569%);fill-opacity:1;" d="M 11.035156 18.414062 L 8.964844 18.414062 C 8.34375 18.414062 7.84375 17.914062 7.84375 17.292969 L 7.84375 15.050781 L 12.15625 15.050781 L 12.15625 17.292969 C 12.15625 17.914062 11.652344 18.414062 11.035156 18.414062 Z M 11.035156 18.414062 "/>
<path style=" stroke:none;fill-rule:nonzero;fill:rgb(9.019608%,21.568627%,31.764706%);fill-opacity:1;" d="M 12.15625 15.050781 L 12.15625 17.292969 C 12.15625 17.914062 11.65625 18.414062 11.035156 18.414062 L 10 18.414062 L 10 15.050781 Z M 12.15625 15.050781 "/>
<path style=" stroke:none;fill-rule:nonzero;fill:rgb(100%,83.529412%,36.078431%);fill-opacity:1;" d="M 15.15625 6.742188 C 15.15625 3.894531 12.847656 1.585938 10 1.585938 C 7.152344 1.585938 4.84375 3.894531 4.84375 6.742188 C 4.84375 8.195312 5.445312 9.507812 6.414062 10.445312 C 6.414062 10.445312 6.417969 10.445312 6.417969 10.449219 C 6.460938 10.488281 6.503906 10.53125 6.546875 10.570312 C 6.90625 10.917969 7.878906 11.949219 7.878906 12.9375 C 7.878906 14.152344 8.878906 14.273438 10 14.273438 C 11.121094 14.273438 12.121094 14.152344 12.121094 12.9375 C 12.121094 11.953125 13.09375 10.917969 13.453125 10.570312 C 13.496094 10.53125 13.539062 10.488281 13.582031 10.449219 C 13.582031 10.445312 13.585938 10.445312 13.585938 10.445312 C 14.554688 9.507812 15.15625 8.195312 15.15625 6.742188 Z M 15.15625 6.742188 "/>
<path style=" stroke:none;fill-rule:nonzero;fill:rgb(95.686275%,73.72549%,23.921569%);fill-opacity:1;" d="M 15.15625 6.742188 C 15.15625 8.195312 14.554688 9.507812 13.585938 10.445312 C 13.585938 10.445312 13.585938 10.445312 13.582031 10.449219 C 13.539062 10.488281 13.496094 10.53125 13.453125 10.570312 C 13.09375 10.917969 12.121094 11.953125 12.121094 12.9375 C 12.121094 13.039062 12.113281 13.132812 12.101562 13.21875 C 11.953125 14.171875 11.027344 14.273438 10 14.273438 L 10 1.585938 C 12.847656 1.585938 15.15625 3.894531 15.15625 6.742188 Z M 15.15625 6.742188 "/>
<path style=" stroke:none;fill-rule:nonzero;fill:rgb(22.352941%,37.647059%,49.803922%);fill-opacity:1;" d="M 7.003906 13.21875 L 12.996094 13.21875 L 12.996094 15.328125 L 7.003906 15.328125 Z M 7.003906 13.21875 "/>
<path style=" stroke:none;fill-rule:nonzero;fill:rgb(14.509804%,29.411765%,43.921569%);fill-opacity:1;" d="M 10 13.21875 L 12.996094 13.21875 L 12.996094 15.328125 L 10 15.328125 Z M 10 13.21875 "/>
<path style=" stroke:none;fill-rule:nonzero;fill:rgb(22.352941%,37.647059%,49.803922%);fill-opacity:1;" d="M 10.488281 6.78125 C 10.414062 6.757812 10.34375 6.730469 10.269531 6.703125 L 10.269531 5.492188 C 10.4375 5.539062 10.542969 5.625 10.554688 5.636719 L 10.765625 5.832031 L 11.164062 5.402344 L 10.949219 5.203125 C 10.933594 5.1875 10.679688 4.960938 10.269531 4.894531 L 10.269531 4.363281 L 9.683594 4.363281 L 9.683594 4.914062 C 9.648438 4.921875 9.617188 4.929688 9.582031 4.941406 C 9.1875 5.058594 8.898438 5.394531 8.816406 5.816406 C 8.746094 6.199219 8.867188 6.570312 9.140625 6.785156 C 9.277344 6.890625 9.449219 6.992188 9.683594 7.097656 L 9.683594 8.652344 C 9.488281 8.636719 9.355469 8.582031 9.140625 8.441406 L 8.894531 8.28125 L 8.574219 8.769531 L 8.820312 8.929688 C 9.15625 9.152344 9.390625 9.222656 9.683594 9.242188 L 9.683594 9.796875 L 10.269531 9.796875 L 10.269531 9.214844 C 10.867188 9.089844 11.21875 8.589844 11.296875 8.125 C 11.398438 7.519531 11.082031 6.992188 10.488281 6.78125 Z M 9.503906 6.324219 C 9.40625 6.246094 9.363281 6.089844 9.394531 5.925781 C 9.421875 5.78125 9.511719 5.609375 9.683594 5.527344 L 9.683594 6.441406 C 9.617188 6.402344 9.554688 6.363281 9.503906 6.324219 Z M 10.71875 8.027344 C 10.679688 8.253906 10.527344 8.496094 10.269531 8.601562 L 10.269531 7.328125 C 10.277344 7.332031 10.285156 7.332031 10.292969 7.335938 C 10.765625 7.503906 10.738281 7.910156 10.71875 8.027344 Z M 10.71875 8.027344 "/>
<path style=" stroke:none;fill-rule:nonzero;fill:rgb(14.509804%,29.411765%,43.921569%);fill-opacity:1;" d="M 10.488281 6.78125 C 10.414062 6.757812 10.34375 6.730469 10.269531 6.703125 L 10.269531 5.492188 C 10.4375 5.539062 10.542969 5.625 10.554688 5.636719 L 10.765625 5.832031 L 11.164062 5.402344 L 10.949219 5.203125 C 10.933594 5.1875 10.679688 4.960938 10.269531 4.894531 L 10.269531 4.363281 L 10 4.363281 L 10 9.796875 L 10.269531 9.796875 L 10.269531 9.214844 C 10.867188 9.089844 11.21875 8.589844 11.296875 8.125 C 11.398438 7.519531 11.078125 6.992188 10.488281 6.78125 Z M 10.71875 8.027344 C 10.679688 8.253906 10.527344 8.496094 10.269531 8.601562 L 10.269531 7.328125 C 10.277344 7.328125 10.285156 7.332031 10.292969 7.335938 C 10.765625 7.503906 10.738281 7.910156 10.71875 8.027344 Z M 10.71875 8.027344 "/>
</g>
</svg>
