<?xml version="1.0" encoding="UTF-8"?>
<svg xmlns="http://www.w3.org/2000/svg" xmlns:xlink="http://www.w3.org/1999/xlink" width="20pt" height="20pt" viewBox="0 0 20 20" version="1.1">
<g id="surface1">
<path style=" stroke:none;fill-rule:nonzero;fill:rgb(52.941176%,86.27451%,98.039216%);fill-opacity:1;" d="M 20 10.117188 C 20 15.527344 15.621094 19.972656 10.140625 19.972656 C 4.675781 19.972656 0.285156 15.539062 0.285156 10.117188 C 0.285156 4.671875 4.699219 0.257812 10.140625 0.257812 C 15.597656 0.257812 20 4.679688 20 10.117188 Z M 20 10.117188 "/>
<path style=" stroke:none;fill-rule:nonzero;fill:rgb(41.568627%,81.176471%,94.901961%);fill-opacity:1;" d="M 19.015625 14.28125 C 19.015625 14.851562 14.121094 15.003906 8.464844 15.003906 C 5.703125 15.003906 3.269531 14.96875 1.5 14.863281 C 1.257812 14.417969 1.046875 13.957031 0.871094 13.472656 C 2.664062 13.167969 5.355469 12.933594 8.464844 12.933594 C 14.121094 12.933594 19.015625 13.707031 19.015625 14.28125 Z M 19.015625 14.28125 "/>
<path style=" stroke:none;fill-rule:nonzero;fill:rgb(0%,47.058824%,78.431373%);fill-opacity:1;" d="M 15.386719 9.046875 L 13.960938 9.046875 C 13.460938 9.046875 13.003906 8.761719 12.777344 8.308594 C 11.960938 6.675781 10.699219 5.097656 10.183594 4.480469 C 10.035156 4.304688 9.832031 4.1875 9.605469 4.148438 L 7.132812 3.726562 C 5.910156 3.378906 5.070312 2.160156 5.222656 0.949219 L 5.261719 0.664062 C 5.28125 0.484375 5.226562 0.304688 5.097656 0.183594 C 4.882812 -0.0273438 4.539062 -0.0234375 4.324219 0.1875 L 0.226562 4.289062 C -0.164062 4.675781 -0.015625 5.453125 0.417969 5.886719 C 4.742188 10.210938 6.902344 12.371094 7.980469 13.449219 C 8.597656 14.066406 9.4375 14.414062 10.308594 14.414062 L 18.265625 14.414062 C 18.671875 14.414062 19 14.085938 19 13.679688 L 19 12.660156 C 19 10.664062 17.382812 9.046875 15.386719 9.046875 Z M 15.386719 9.046875 "/>
<path style=" stroke:none;fill-rule:nonzero;fill:rgb(39.215686%,68.627451%,100%);fill-opacity:1;" d="M 9.628906 6.070312 C 9.539062 5.921875 9.582031 5.730469 9.730469 5.636719 L 11.402344 4.597656 C 11.550781 4.503906 11.742188 4.550781 11.835938 4.695312 C 11.925781 4.84375 11.882812 5.039062 11.734375 5.128906 L 10.0625 6.171875 C 9.914062 6.261719 9.722656 6.21875 9.628906 6.070312 Z M 9.628906 6.070312 "/>
<path style=" stroke:none;fill-rule:nonzero;fill:rgb(39.215686%,68.627451%,100%);fill-opacity:1;" d="M 10.464844 7.410156 C 10.371094 7.261719 10.417969 7.066406 10.5625 6.976562 L 12.234375 5.933594 C 12.382812 5.84375 12.578125 5.886719 12.667969 6.035156 C 12.761719 6.183594 12.714844 6.375 12.566406 6.46875 L 10.894531 7.507812 C 10.75 7.601562 10.554688 7.554688 10.464844 7.410156 Z M 10.464844 7.410156 "/>
<path style=" stroke:none;fill-rule:nonzero;fill:rgb(39.215686%,68.627451%,100%);fill-opacity:1;" d="M 11.296875 8.746094 C 11.203125 8.601562 11.25 8.40625 11.398438 8.316406 L 13.070312 7.273438 C 13.214844 7.183594 13.410156 7.226562 13.503906 7.375 C 13.59375 7.523438 13.546875 7.714844 13.402344 7.808594 L 11.730469 8.847656 C 11.582031 8.941406 11.386719 8.894531 11.296875 8.746094 Z M 11.296875 8.746094 "/>
<path style=" stroke:none;fill-rule:nonzero;fill:rgb(3.921569%,39.215686%,70.588235%);fill-opacity:1;" d="M 19 12.660156 L 19 13.679688 C 19 14.085938 18.671875 14.414062 18.265625 14.414062 L 10.308594 14.414062 C 9.4375 14.414062 8.597656 14.066406 7.980469 13.449219 C 6.902344 12.371094 4.742188 10.210938 0.417969 5.886719 C -0.015625 5.453125 -0.164062 4.675781 0.226562 4.289062 L 1.433594 3.078125 L 9.589844 11.238281 C 9.863281 11.507812 10.234375 11.664062 10.621094 11.664062 L 18.859375 11.664062 C 18.949219 11.980469 19 12.3125 19 12.660156 Z M 19 12.660156 "/>
<path style=" stroke:none;fill-rule:nonzero;fill:rgb(78.431373%,90.196078%,100%);fill-opacity:1;" d="M 19 12.660156 L 19 12.847656 C 18.929688 12.847656 10.089844 12.851562 10.011719 12.851562 C 9.785156 12.851562 9.570312 12.835938 9.332031 12.59375 C 7.375 10.640625 6.671875 9.9375 0.625 3.890625 L 1.066406 3.445312 C 6.863281 9.242188 9.101562 11.464844 9.6875 12.046875 C 9.792969 12.152344 9.941406 12.214844 10.089844 12.214844 L 18.972656 12.222656 C 18.992188 12.363281 19 12.511719 19 12.660156 Z M 19 12.660156 "/>
</g>
</svg>
