<?xml version="1.0" encoding="iso-8859-1"?>
<!-- Generator: Adobe Illustrator 19.0.0, SVG Export Plug-In . SVG Version: 6.00 Build 0)  -->
<svg xmlns="http://www.w3.org/2000/svg" xmlns:xlink="http://www.w3.org/1999/xlink" version="1.1" id="Layer_1" x="0px" y="0px" viewBox="0 0 512 512" style="enable-background:new 0 0 512 512;" xml:space="preserve" width="20pt" height="20pt">
<g>
	<circle style="fill:#FDBF00;" cx="256" cy="256" r="256"/>
	<path style="fill:#FF9100;" d="M511.87,263.831L409.5,161.46l-9.291,9.291l-81.25-81.25L204,118l22.667,140.667L102.505,396.502   l112.159,112.159C228.122,510.846,241.925,512,256,512C394.764,512,507.729,401.591,511.87,263.831z"/>
	<g>
		<polygon style="fill:#3E5959;" points="318.959,89.5 318.959,170.447 282.982,170.447 282.982,125.477 229.018,125.477     229.018,170.447 193.041,170.447 193.041,89.5   "/>
		<polygon style="fill:#293939;" points="318.959,89.5 318.959,170.447 282.982,170.447 282.982,125.477 256,125.477 256,89.5   "/>
		<polygon style="fill:#3E5959;" points="409.5,234.006 409.5,396.5 354.936,396.5 345.941,378.512 336.947,396.5 175.053,396.5     166.059,378.512 157.064,396.5 102.5,396.5 102.5,234.006 120.488,216.018 391.512,216.018   "/>
		<polygon style="fill:#293939;" points="409.5,234.006 409.5,396.5 354.936,396.5 345.941,378.512 336.947,396.5 256,396.5     256,216.018 391.512,216.018   "/>
		<rect x="157.064" y="323.947" style="fill:#537983;" width="17.988" height="72.553"/>
		<rect x="336.947" y="323.947" style="fill:#3E5959;" width="17.988" height="72.553"/>
		<rect x="211.029" y="251.994" style="fill:#FDBF00;" width="89.941" height="71.953"/>
		<rect x="256" y="251.994" style="fill:#FF9100;" width="44.971" height="71.953"/>
		<polygon style="fill:#537983;" points="409.5,161.453 409.5,234.006 256,287.971 102.5,234.006 102.5,161.453   "/>
		<polygon style="fill:#3E5959;" points="409.5,161.453 409.5,234.006 256,287.971 256,161.453   "/>
	</g>
</g>















</svg>
